<svg width="27" height="27" viewBox="0 0 27 27" fill="none" xmlns="http://www.w3.org/2000/svg">
<g opacity="0.3" clip-path="url(#clip0_123_353)">
<path d="M25.1795 18.1603C24.9971 19.5464 24.3164 20.8187 23.2645 21.7395C22.2126 22.6604 20.8614 23.1669 19.4634 23.1644C11.3414 23.1644 4.73341 16.5564 4.73341 8.43439C4.7309 7.03637 5.23739 5.68523 6.15826 4.63333C7.07914 3.58144 8.35143 2.90073 9.73752 2.71834C10.088 2.67554 10.443 2.74725 10.7494 2.92275C11.0558 3.09826 11.2972 3.36816 11.4376 3.69215L13.598 8.5152V8.52748C13.7055 8.77549 13.7499 9.04626 13.7272 9.31561C13.7046 9.58496 13.6155 9.84451 13.4681 10.0711C13.4497 10.0987 13.4302 10.1243 13.4098 10.1498L11.2801 12.6744C12.0462 14.2313 13.6747 15.8454 15.2521 16.6136L17.7418 14.4952C17.7663 14.4746 17.7919 14.4555 17.8186 14.4379C18.0449 14.2869 18.3054 14.1948 18.5763 14.1697C18.8472 14.1447 19.1201 14.1877 19.3703 14.2947L19.3836 14.3008L24.2026 16.4602C24.5271 16.6001 24.7977 16.8413 24.9738 17.1478C25.1499 17.4542 25.222 17.8094 25.1795 18.1603Z" fill="black"/>
</g>
<defs>
<clipPath id="clip0_123_353">
<rect width="26.1867" height="26.1867" fill="white" transform="translate(0.369141 0.639984)"/>
</clipPath>
</defs>
</svg>
