<svg width="27" height="27" viewBox="0 0 27 27" fill="none" xmlns="http://www.w3.org/2000/svg">
<path fill-rule="evenodd" clip-rule="evenodd" d="M11.2802 4.49555H15.6446C19.7592 4.49555 21.817 4.49555 23.0947 5.77433C24.3735 7.05202 24.3735 9.10986 24.3735 13.2244C24.3735 17.339 24.3735 19.3969 23.0947 20.6745C21.817 21.9533 19.7592 21.9533 15.6446 21.9533H11.2802C7.16558 21.9533 5.10774 21.9533 3.83005 20.6745C2.55127 19.3969 2.55127 17.339 2.55127 13.2244C2.55127 9.10986 2.55127 7.05202 3.83005 5.77433C5.10774 4.49555 7.16558 4.49555 11.2802 4.49555ZM14.8263 9.95111C14.8263 9.73407 14.9125 9.52592 15.066 9.37246C15.2194 9.21899 15.4276 9.13277 15.6446 9.13277H21.1002C21.3172 9.13277 21.5253 9.21899 21.6788 9.37246C21.8323 9.52592 21.9185 9.73407 21.9185 9.95111C21.9185 10.1681 21.8323 10.3763 21.6788 10.5298C21.5253 10.6832 21.3172 10.7694 21.1002 10.7694H15.6446C15.4276 10.7694 15.2194 10.6832 15.066 10.5298C14.9125 10.3763 14.8263 10.1681 14.8263 9.95111ZM15.9174 13.2244C15.9174 13.0074 16.0036 12.7993 16.1571 12.6458C16.3105 12.4923 16.5187 12.4061 16.7357 12.4061H21.1002C21.3172 12.4061 21.5253 12.4923 21.6788 12.6458C21.8323 12.7993 21.9185 13.0074 21.9185 13.2244C21.9185 13.4415 21.8323 13.6496 21.6788 13.8031C21.5253 13.9566 21.3172 14.0428 21.1002 14.0428H16.7357C16.5187 14.0428 16.3105 13.9566 16.1571 13.8031C16.0036 13.6496 15.9174 13.4415 15.9174 13.2244ZM17.0085 16.4978C17.0085 16.2807 17.0947 16.0726 17.2482 15.9191C17.4016 15.7657 17.6098 15.6794 17.8268 15.6794H21.1002C21.3172 15.6794 21.5253 15.7657 21.6788 15.9191C21.8323 16.0726 21.9185 16.2807 21.9185 16.4978C21.9185 16.7148 21.8323 16.923 21.6788 17.0764C21.5253 17.2299 21.3172 17.3161 21.1002 17.3161H17.8268C17.6098 17.3161 17.4016 17.2299 17.2482 17.0764C17.0947 16.923 17.0085 16.7148 17.0085 16.4978ZM12.3713 9.95111C12.3713 10.5299 12.1414 11.0849 11.7321 11.4942C11.3229 11.9034 10.7678 12.1333 10.189 12.1333C9.61029 12.1333 9.05523 11.9034 8.64598 11.4942C8.23674 11.0849 8.00682 10.5299 8.00682 9.95111C8.00682 9.37234 8.23674 8.81729 8.64598 8.40804C9.05523 7.99879 9.61029 7.76888 10.189 7.76888C10.7678 7.76888 11.3229 7.99879 11.7321 8.40804C12.1414 8.81729 12.3713 9.37234 12.3713 9.95111ZM10.189 18.68C14.5535 18.68 14.5535 17.7034 14.5535 16.4978C14.5535 15.2921 12.6004 14.3155 10.189 14.3155C7.77769 14.3155 5.8246 15.2921 5.8246 16.4978C5.8246 17.7034 5.8246 18.68 10.189 18.68Z" fill="#C2C2C2"/>
</svg>
