<svg width="17" height="17" viewBox="0 0 17 17" fill="none" xmlns="http://www.w3.org/2000/svg">
<path d="M8.67122 16.1348V4.38738C8.67122 3.00266 8.67122 2.31103 8.24098 1.88078C7.81073 1.45053 7.1191 1.45053 5.73438 1.45053H4.26595C2.88123 1.45053 2.1896 1.45053 1.75935 1.88078C1.3291 2.31103 1.3291 3.00266 1.3291 4.38738V13.1979C1.3291 14.5827 1.3291 15.2743 1.75935 15.7045C2.1896 16.1348 2.88123 16.1348 4.26595 16.1348H8.67122ZM8.67122 16.1348H13.0765C14.4612 16.1348 15.1529 16.1348 15.5831 15.7045C16.0133 15.2743 16.0133 14.5827 16.0133 13.1979V8.79265C16.0133 7.40793 16.0133 6.7163 15.5831 6.28605C15.1529 5.8558 14.4612 5.8558 13.0765 5.8558H8.67122M13.4436 11.7295H11.241M13.4436 8.79265H11.241M6.10148 10.2611H3.89884M6.10148 7.32423H3.89884M6.10148 4.38738H3.89884" stroke="#333333" stroke-width="1.10132" stroke-linecap="round" stroke-linejoin="round"/>
</svg>
