<svg width="8" height="8" viewBox="0 0 8 8" fill="none" xmlns="http://www.w3.org/2000/svg">
<path d="M4 3.58333C4.22917 3.58333 4.42542 3.50181 4.58875 3.33875C4.75208 3.17569 4.83361 2.97944 4.83333 2.75C4.83306 2.52056 4.75153 2.32444 4.58875 2.16167C4.42597 1.99889 4.22972 1.91722 4 1.91667C3.77028 1.91611 3.57417 1.99778 3.41167 2.16167C3.24917 2.32556 3.1675 2.52167 3.16667 2.75C3.16583 2.97833 3.2475 3.17458 3.41167 3.33875C3.57583 3.50292 3.77194 3.58444 4 3.58333ZM1.91667 3.5V1.91667H1.08333V2.33333C1.08333 2.59722 1.15972 2.83514 1.3125 3.04708C1.46528 3.25903 1.66667 3.41 1.91667 3.5ZM6.08333 3.5C6.33333 3.40972 6.53472 3.25861 6.6875 3.04667C6.84028 2.83472 6.91667 2.59694 6.91667 2.33333V1.91667H6.08333V3.5ZM3.58333 6.91667V5.625C3.24306 5.54861 2.93931 5.40458 2.67208 5.19292C2.40486 4.98125 2.20861 4.71556 2.08333 4.39583C1.5625 4.33333 1.12681 4.10597 0.77625 3.71375C0.425694 3.32153 0.250278 2.86139 0.25 2.33333V1.91667C0.25 1.6875 0.331667 1.49139 0.495 1.32833C0.658333 1.16528 0.854444 1.08361 1.08333 1.08333H1.91667C1.91667 0.854167 1.99833 0.658056 2.16167 0.495C2.325 0.331944 2.52111 0.250278 2.75 0.25H5.25C5.47917 0.25 5.67542 0.331667 5.83875 0.495C6.00208 0.658333 6.08361 0.854444 6.08333 1.08333H6.91667C7.14583 1.08333 7.34208 1.165 7.50542 1.32833C7.66875 1.49167 7.75028 1.68778 7.75 1.91667V2.33333C7.75 2.86111 7.57458 3.32125 7.22375 3.71375C6.87292 4.10625 6.43722 4.33361 5.91667 4.39583C5.79167 4.71528 5.59556 4.98097 5.32833 5.19292C5.06111 5.40486 4.75722 5.54889 4.41667 5.625V6.91667H5.66667C5.78472 6.91667 5.88375 6.95667 5.96375 7.03667C6.04375 7.11667 6.08361 7.21556 6.08333 7.33333C6.08306 7.45111 6.04306 7.55014 5.96333 7.63042C5.88361 7.71069 5.78472 7.75056 5.66667 7.75H2.33333C2.21528 7.75 2.11639 7.71 2.03667 7.63C1.95694 7.55 1.91694 7.45111 1.91667 7.33333C1.91639 7.21556 1.95639 7.11667 2.03667 7.03667C2.11694 6.95667 2.21583 6.91667 2.33333 6.91667H3.58333Z" fill="#E3A243"/>
</svg>
