<svg width="23" height="23" viewBox="0 0 23 23" fill="none" xmlns="http://www.w3.org/2000/svg">
<path d="M11.5 10.5417C12.0271 10.5417 12.4785 10.3542 12.8541 9.97912C13.2298 9.6041 13.4173 9.15272 13.4167 8.625C13.416 8.09728 13.2285 7.64622 12.8541 7.27183C12.4797 6.89744 12.0284 6.70961 11.5 6.70833C10.9716 6.70706 10.5206 6.89489 10.1468 7.27183C9.77308 7.64878 9.58525 8.09983 9.58333 8.625C9.58142 9.15017 9.76925 9.60154 10.1468 9.97912C10.5244 10.3567 10.9755 10.5442 11.5 10.5417ZM6.70833 10.35V6.70833H4.79167V7.66667C4.79167 8.27361 4.96736 8.82082 5.31875 9.30829C5.67014 9.79576 6.13333 10.143 6.70833 10.35ZM16.2917 10.35C16.8667 10.1424 17.3299 9.79481 17.6813 9.30733C18.0326 8.81986 18.2083 8.27297 18.2083 7.66667V6.70833H16.2917V10.35ZM10.5417 18.2083V15.2375C9.75903 15.0618 9.0604 14.7305 8.44579 14.2437C7.83118 13.7569 7.37981 13.1458 7.09167 12.4104C5.89375 12.2667 4.89165 11.7437 4.08537 10.8416C3.2791 9.93951 2.87564 8.88119 2.875 7.66667V6.70833C2.875 6.18125 3.06283 5.73019 3.4385 5.35517C3.81417 4.98014 4.26522 4.79231 4.79167 4.79167H6.70833C6.70833 4.26458 6.89617 3.81353 7.27183 3.4385C7.6475 3.06347 8.09856 2.87564 8.625 2.875H14.375C14.9021 2.875 15.3535 3.06283 15.7291 3.4385C16.1048 3.81417 16.2923 4.26522 16.2917 4.79167H18.2083C18.7354 4.79167 19.1868 4.9795 19.5625 5.35517C19.9381 5.73083 20.1256 6.18189 20.125 6.70833V7.66667C20.125 8.88056 19.7215 9.93887 18.9146 10.8416C18.1077 11.7444 17.1056 12.2673 15.9083 12.4104C15.6208 13.1451 15.1698 13.7562 14.5552 14.2437C13.9406 14.7312 13.2416 15.0624 12.4583 15.2375V18.2083H15.3333C15.6049 18.2083 15.8326 18.3003 16.0166 18.4843C16.2006 18.6683 16.2923 18.8958 16.2917 19.1667C16.291 19.4376 16.199 19.6653 16.0157 19.85C15.8323 20.0346 15.6049 20.1263 15.3333 20.125H7.66667C7.39514 20.125 7.16769 20.033 6.98433 19.849C6.80097 19.665 6.70897 19.4376 6.70833 19.1667C6.70769 18.8958 6.79969 18.6683 6.98433 18.4843C7.16897 18.3003 7.39642 18.2083 7.66667 18.2083H10.5417Z" fill="#186338"/>
</svg>
