<svg width="18" height="19" viewBox="0 0 18 19" fill="none" xmlns="http://www.w3.org/2000/svg">
<path d="M7.33268 4.25H10.666C10.666 3.78587 10.4904 3.34075 10.1779 3.01256C9.8653 2.68437 9.44138 2.5 8.99935 2.5C8.55732 2.5 8.1334 2.68437 7.82084 3.01256C7.50828 3.34075 7.33268 3.78587 7.33268 4.25ZM5.66602 4.25C5.66602 3.32174 6.0172 2.4315 6.64233 1.77513C7.26745 1.11875 8.11529 0.75 8.99935 0.75C9.8834 0.75 10.7312 1.11875 11.3564 1.77513C11.9815 2.4315 12.3327 3.32174 12.3327 4.25H16.4993C16.7204 4.25 16.9323 4.34219 17.0886 4.50628C17.2449 4.67038 17.3327 4.89294 17.3327 5.125C17.3327 5.35706 17.2449 5.57962 17.0886 5.74372C16.9323 5.90781 16.7204 6 16.4993 6H15.7643L15.026 15.0475C14.955 15.9212 14.5743 16.735 13.9592 17.3281C13.3441 17.9211 12.5394 18.2501 11.7043 18.25H6.29435C5.45927 18.2501 4.65458 17.9211 4.03947 17.3281C3.42437 16.735 3.04366 15.9212 2.97268 15.0475L2.23435 6H1.49935C1.27834 6 1.06637 5.90781 0.910093 5.74372C0.753813 5.57962 0.666016 5.35706 0.666016 5.125C0.666016 4.89294 0.753813 4.67038 0.910093 4.50628C1.06637 4.34219 1.27834 4.25 1.49935 4.25H5.66602ZM11.4993 9.5C11.4993 9.26794 11.4116 9.04538 11.2553 8.88128C11.099 8.71719 10.887 8.625 10.666 8.625C10.445 8.625 10.233 8.71719 10.0768 8.88128C9.92048 9.04538 9.83268 9.26794 9.83268 9.5V13C9.83268 13.2321 9.92048 13.4546 10.0768 13.6187C10.233 13.7828 10.445 13.875 10.666 13.875C10.887 13.875 11.099 13.7828 11.2553 13.6187C11.4116 13.4546 11.4993 13.2321 11.4993 13V9.5ZM7.33268 8.625C7.11167 8.625 6.89971 8.71719 6.74343 8.88128C6.58715 9.04538 6.49935 9.26794 6.49935 9.5V13C6.49935 13.2321 6.58715 13.4546 6.74343 13.6187C6.89971 13.7828 7.11167 13.875 7.33268 13.875C7.5537 13.875 7.76566 13.7828 7.92194 13.6187C8.07822 13.4546 8.16602 13.2321 8.16602 13V9.5C8.16602 9.26794 8.07822 9.04538 7.92194 8.88128C7.76566 8.71719 7.5537 8.625 7.33268 8.625Z" fill="#FF4752"/>
</svg>
