<svg width="18" height="19" viewBox="0 0 18 19" fill="none" xmlns="http://www.w3.org/2000/svg">
<path d="M0.5 13.5313C0.5 14.2855 0.785341 15.0088 1.29325 15.5421C1.80116 16.0754 2.49004 16.375 3.20833 16.375H7.30417L7.60083 15.1299C7.73583 14.5629 8.015 14.0449 8.40917 13.6319L13.3275 8.46675C13.6098 8.16991 13.9506 7.94165 14.3259 7.79804C14.7013 7.65442 15.102 7.59894 15.5 7.6355V3.46875C15.5 2.71454 15.2147 1.99122 14.7067 1.45792C14.1988 0.924608 13.51 0.625 12.7917 0.625H7.16667V4.78125C7.16667 5.1547 7.09661 5.52449 6.96051 5.86951C6.8244 6.21453 6.62491 6.52802 6.37341 6.79209C6.12192 7.05615 5.82336 7.26562 5.49477 7.40853C5.16618 7.55144 4.814 7.625 4.45833 7.625H0.5V13.5313ZM5.91667 1.01L0.866667 6.3125H4.45833C4.84511 6.3125 5.21604 6.15117 5.48953 5.86401C5.76302 5.57684 5.91667 5.18736 5.91667 4.78125V1.01ZM13.9167 9.08625L8.9975 14.2505C8.71137 14.5519 8.5081 14.9289 8.40917 15.3416L8.0275 16.9438C7.98954 17.1032 7.99156 17.2702 8.03336 17.4285C8.07516 17.5868 8.15531 17.7311 8.266 17.8473C8.3767 17.9634 8.51416 18.0474 8.66499 18.0912C8.81583 18.135 8.97488 18.137 9.12667 18.097L10.6517 17.6971C11.0451 17.5931 11.4045 17.3794 11.6917 17.0785L16.61 11.9143C16.9534 11.5363 17.1424 11.0323 17.1366 10.51C17.1307 9.98765 16.9305 9.48845 16.5787 9.11909C16.227 8.74972 15.7515 8.5395 15.2541 8.53337C14.7566 8.52723 14.2766 8.72566 13.9167 9.08625Z" fill="#0D6EFD"/>
</svg>
