<svg width="20" height="21" viewBox="0 0 20 21" fill="none" xmlns="http://www.w3.org/2000/svg">
<path d="M2.5 15.5313C2.5 16.2855 2.78534 17.0088 3.29325 17.5421C3.80116 18.0754 4.49004 18.375 5.20833 18.375H9.30417L9.60083 17.1299C9.73583 16.5629 10.015 16.0449 10.4092 15.6319L15.3275 10.4668C15.6098 10.1699 15.9506 9.94165 16.3259 9.79804C16.7013 9.65442 17.102 9.59894 17.5 9.6355V5.46875C17.5 4.71454 17.2147 3.99122 16.7067 3.45792C16.1988 2.92461 15.51 2.625 14.7917 2.625H9.16667V6.78125C9.16667 7.1547 9.09661 7.52449 8.96051 7.86951C8.8244 8.21453 8.62491 8.52802 8.37341 8.79209C8.12192 9.05615 7.82336 9.26562 7.49477 9.40853C7.16618 9.55144 6.814 9.625 6.45833 9.625H2.5V15.5313ZM7.91667 3.01L2.86667 8.3125H6.45833C6.84511 8.3125 7.21604 8.15117 7.48953 7.86401C7.76302 7.57684 7.91667 7.18736 7.91667 6.78125V3.01ZM15.9167 11.0863L10.9975 16.2505C10.7114 16.5519 10.5081 16.9289 10.4092 17.3416L10.0275 18.9438C9.98954 19.1032 9.99156 19.2702 10.0334 19.4285C10.0752 19.5868 10.1553 19.7311 10.266 19.8473C10.3767 19.9634 10.5142 20.0474 10.665 20.0912C10.8158 20.135 10.9749 20.137 11.1267 20.097L12.6517 19.6971C13.0451 19.5931 13.4045 19.3794 13.6917 19.0785L18.61 13.9143C18.9534 13.5363 19.1424 13.0323 19.1366 12.51C19.1307 11.9877 18.9305 11.4885 18.5787 11.1191C18.227 10.7497 17.7515 10.5395 17.2541 10.5334C16.7566 10.5272 16.2766 10.7257 15.9167 11.0863Z" fill="#0D6EFD"/>
</svg>
