<svg width="23" height="21" viewBox="0 0 23 21" fill="none" xmlns="http://www.w3.org/2000/svg">
<path d="M2.1404 9.22628H16.0345L9.99356 3.77496C9.64885 3.46296 9.4552 3.03978 9.4552 2.59854C9.4552 2.1573 9.64885 1.73412 9.99356 1.42212C10.3383 1.11011 10.8058 0.934826 11.2933 0.934826C11.7807 0.934826 12.2483 1.11011 12.593 1.42212L21.7458 9.70679C21.9125 9.86437 22.0431 10.0502 22.1303 10.2536C22.3134 10.657 22.3134 11.1094 22.1303 11.5128C22.0431 11.7162 21.9125 11.9021 21.7458 12.0596L12.593 20.3443C12.4228 20.4996 12.2203 20.6229 11.9973 20.707C11.7742 20.7911 11.5349 20.8344 11.2933 20.8344C11.0516 20.8344 10.8123 20.7911 10.5893 20.707C10.3662 20.6229 10.1637 20.4996 9.99356 20.3443C9.82198 20.1903 9.6858 20.007 9.59286 19.8051C9.49993 19.6032 9.45208 19.3866 9.45208 19.1679C9.45208 18.9491 9.49993 18.7326 9.59286 18.5307C9.6858 18.3288 9.82198 18.1455 9.99356 17.9915L16.0345 12.5401H2.1404C1.6549 12.5401 1.18928 12.3656 0.845985 12.0548C0.502686 11.7441 0.309824 11.3227 0.309824 10.8832C0.309824 10.4438 0.502686 10.0223 0.845985 9.71158C1.18928 9.40085 1.6549 9.22628 2.1404 9.22628Z" fill="#0B9643"/>
</svg>
