<svg width="34" height="34" viewBox="0 0 34 34" fill="none" xmlns="http://www.w3.org/2000/svg">
<path d="M14.3154 5.66666H19.6846L20.3929 12.75H13.6071L14.3154 5.66666ZM13.3238 15.5833H20.6763L21.3846 22.6667H18.4167V25.5H21.25C21.6257 25.5 21.9861 25.6492 22.2517 25.9149C22.5174 26.1806 22.6667 26.5409 22.6667 26.9167C22.6667 27.2924 22.5174 27.6527 22.2517 27.9184C21.9861 28.1841 21.6257 28.3333 21.25 28.3333H12.75C12.3743 28.3333 12.014 28.1841 11.7483 27.9184C11.4826 27.6527 11.3333 27.2924 11.3333 26.9167C11.3333 26.5409 11.4826 26.1806 11.7483 25.9149C12.014 25.6492 12.3743 25.5 12.75 25.5H15.5833V22.6667H12.6154L13.3238 15.5833ZM23.5238 15.5833L24.2321 22.6667H28.8858C29.2002 22.6667 29.5107 22.5969 29.7949 22.4625C30.0791 22.328 30.3299 22.1321 30.5292 21.889C30.7285 21.6459 30.8715 21.3616 30.9476 21.0566C31.0238 20.7516 31.0314 20.4334 30.9698 20.1252L30.0617 15.5833H23.5238ZM22.5321 5.66666L23.2404 12.75H29.495L28.5331 7.94466C28.4048 7.30259 28.058 6.7248 27.5518 6.3095C27.0456 5.89421 26.4112 5.66705 25.7564 5.66666H22.5321ZM11.4679 5.66666H8.24501C7.59001 5.66672 6.95526 5.89373 6.44876 6.30905C5.94226 6.72438 5.59531 7.30236 5.46693 7.94466L4.50501 12.75H10.7596L11.4679 5.66666ZM10.4763 15.5833H3.93834L3.03026 20.1252C2.96866 20.4333 2.97619 20.7513 3.05229 21.0562C3.12839 21.3612 3.27118 21.6454 3.47037 21.8885C3.66955 22.1316 3.92017 22.3274 4.20417 22.462C4.48818 22.5966 4.79849 22.6665 5.11276 22.6667H9.76793L10.4763 15.5833Z" fill="#F6B658"/>
</svg>
