<svg width="38" height="38" viewBox="0 0 38 38" fill="none" xmlns="http://www.w3.org/2000/svg">
<path d="M19.5597 4.98196C19.4112 4.83354 19.2099 4.75017 19 4.75017C18.7901 4.75017 18.5887 4.83354 18.4403 4.98196L14.991 8.43046C15.2174 9.03292 15.8468 9.5 16.625 9.5C17.4032 9.5 18.0334 9.03212 18.259 8.43125C18.3157 8.28053 18.417 8.15067 18.5494 8.05901C18.6818 7.96735 18.839 7.91825 19 7.91825C19.161 7.91825 19.3182 7.96735 19.4506 8.05901C19.583 8.15067 19.6843 8.28053 19.741 8.43125C19.9666 9.03212 20.596 9.5 21.375 9.5C22.154 9.5 22.7834 9.03212 23.009 8.43125L19.5597 4.98196ZM24.1791 9.60133C23.5869 10.5022 22.5411 11.0833 21.375 11.0833C20.488 11.0872 19.635 10.7423 19 10.123C18.365 10.7423 17.512 11.0872 16.625 11.0833C15.4589 11.0833 14.4131 10.5022 13.8209 9.60054L9.07962 14.3426C9.14348 14.3759 9.20312 14.4192 9.25854 14.4725C9.60687 14.8097 10.1389 15.0417 10.7564 15.0417C11.9494 15.0417 12.7126 14.2286 12.7126 13.4583C12.7126 13.2484 12.796 13.047 12.9445 12.8985C13.0929 12.7501 13.2943 12.6667 13.5042 12.6667C13.7142 12.6667 13.9156 12.7501 14.064 12.8985C14.2125 13.047 14.2959 13.2484 14.2959 13.4583C14.2959 14.2286 15.0599 15.0417 16.2521 15.0417C17.4444 15.0417 18.2083 14.2286 18.2083 13.4583C18.2083 13.2484 18.2917 13.047 18.4402 12.8985C18.5887 12.7501 18.79 12.6667 19 12.6667C19.21 12.6667 19.4113 12.7501 19.5598 12.8985C19.7083 13.047 19.7917 13.2484 19.7917 13.4583C19.7917 14.2286 20.5548 15.0417 21.7479 15.0417C22.9401 15.0417 23.7033 14.2286 23.7033 13.4583C23.7033 13.2484 23.7867 13.047 23.9352 12.8985C24.0836 12.7501 24.285 12.6667 24.495 12.6667C24.7049 12.6667 24.9063 12.7501 25.0547 12.8985C25.2032 13.047 25.2866 13.2484 25.2866 13.4583C25.2866 14.2286 26.0506 15.0417 27.2436 15.0417C27.8611 15.0417 28.3923 14.8097 28.7415 14.4717C28.7969 14.4194 28.8565 14.3764 28.9204 14.3426L24.1791 9.60133ZM5.77362 17.6486L8.00929 15.413C8.04729 15.4847 8.0969 15.5507 8.15812 15.6109C8.81521 16.2458 9.747 16.625 10.7564 16.625C11.8204 16.625 12.8361 16.1872 13.5042 15.4597C14.1724 16.1872 15.1881 16.625 16.2521 16.625C17.3161 16.625 18.3318 16.1872 19 15.4597C19.6682 16.1872 20.6839 16.625 21.7479 16.625C22.8119 16.625 23.8276 16.1872 24.495 15.4597C25.1639 16.1872 26.1796 16.625 27.2436 16.625C28.2538 16.625 29.1848 16.245 29.8419 15.6117C29.9016 15.5539 29.9518 15.4871 29.9907 15.4137L32.2264 17.6486C32.3748 17.7971 32.4583 17.9984 32.4583 18.2083C32.4583 19.4354 31.308 20.5833 29.6875 20.5833C28.8087 20.5833 28.0899 20.3822 27.6157 20.0585C27.1708 19.7537 26.9167 19.3309 26.9167 18.7364C26.9167 18.5264 26.8333 18.325 26.6848 18.1766C26.5363 18.0281 26.335 17.9447 26.125 17.9447C25.915 17.9447 25.7137 18.0281 25.5652 18.1766C25.4167 18.325 25.3333 18.5264 25.3333 18.7364C25.3333 19.3309 25.0792 19.7537 24.6343 20.0585C24.1601 20.383 23.4412 20.5833 22.5625 20.5833C21.6837 20.5833 20.9649 20.3822 20.4907 20.0585C20.0458 19.7537 19.7917 19.3309 19.7917 18.7364C19.7917 18.5264 19.7083 18.325 19.5598 18.1766C19.4113 18.0281 19.21 17.9447 19 17.9447C18.79 17.9447 18.5887 18.0281 18.4402 18.1766C18.2917 18.325 18.2083 18.5264 18.2083 18.7364C18.2083 19.3309 17.9542 19.7537 17.5093 20.0585C17.0351 20.383 16.3162 20.5833 15.4375 20.5833C14.5587 20.5833 13.8399 20.3822 13.3657 20.0585C12.9208 19.7537 12.6667 19.3309 12.6667 18.7364C12.6667 18.5264 12.5833 18.325 12.4348 18.1766C12.2863 18.0281 12.085 17.9447 11.875 17.9447C11.665 17.9447 11.4637 18.0281 11.3152 18.1766C11.1667 18.325 11.0833 18.5264 11.0833 18.7364C11.0833 19.3309 10.8292 19.7537 10.3843 20.0585C9.91008 20.383 9.19125 20.5833 8.3125 20.5833C6.69196 20.5833 5.54166 19.4354 5.54166 18.2083C5.54171 17.9984 5.62515 17.7971 5.77362 17.6486ZM8.3125 31.3231V22.1667C9.40183 22.1667 10.4635 21.9228 11.2789 21.3647C11.5005 21.2132 11.6992 21.0407 11.875 20.847C12.0507 21.0412 12.2495 21.2138 12.4711 21.3647C13.2865 21.9228 14.3482 22.1667 15.4375 22.1667C16.5268 22.1667 17.5885 21.9228 18.4039 21.3647C18.6255 21.2132 18.8242 21.0407 19 20.847C19.1757 21.0407 19.3745 21.2132 19.5961 21.3647C20.4115 21.9228 21.4732 22.1667 22.5625 22.1667C23.6518 22.1667 24.7135 21.9228 25.5289 21.3647C25.7505 21.2132 25.9492 21.0407 26.125 20.847C26.3007 21.0407 26.4995 21.2132 26.7211 21.3647C27.5365 21.9228 28.5982 22.1667 29.6875 22.1667V31.3231C29.6875 31.9026 29.2576 32.2335 29.009 32.3792C28.7288 32.5454 28.3797 32.6602 28.0385 32.7465C27.3434 32.923 26.4496 33.0331 25.5977 33.1051C24.4827 33.1919 23.365 33.24 22.2466 33.2492L22.188 33.25H22.1675L22.1667 32.4583V27.9165C22.1667 26.4029 20.9032 24.9375 19 24.9375C17.0968 24.9375 15.8333 26.4021 15.8333 27.9165V33.25H15.7534L15.5349 33.2476C14.4894 33.234 13.4446 33.1865 12.4022 33.1051C11.5504 33.0339 10.6566 32.923 9.96154 32.7465C9.62033 32.6602 9.27121 32.5454 8.99096 32.3792C8.74237 32.2327 8.3125 31.9026 8.3125 31.3231Z" fill="#FF93B3"/>
</svg>
