<svg width="19" height="19" viewBox="0 0 19 19" fill="none" xmlns="http://www.w3.org/2000/svg">
<path d="M9.67122 17.1348V5.38738C9.67122 4.00266 9.67122 3.31103 9.24098 2.88078C8.81073 2.45053 8.1191 2.45053 6.73438 2.45053H5.26595C3.88123 2.45053 3.1896 2.45053 2.75935 2.88078C2.3291 3.31103 2.3291 4.00266 2.3291 5.38738V14.1979C2.3291 15.5827 2.3291 16.2743 2.75935 16.7045C3.1896 17.1348 3.88123 17.1348 5.26595 17.1348H9.67122ZM9.67122 17.1348H14.0765C15.4612 17.1348 16.1529 17.1348 16.5831 16.7045C17.0133 16.2743 17.0133 15.5827 17.0133 14.1979V9.79265C17.0133 8.40793 17.0133 7.7163 16.5831 7.28605C16.1529 6.8558 15.4612 6.8558 14.0765 6.8558H9.67122M14.4436 12.7295H12.241M14.4436 9.79265H12.241M7.10148 11.2611H4.89884M7.10148 8.32423H4.89884M7.10148 5.38738H4.89884" stroke="#333333" stroke-width="1.10132" stroke-linecap="round" stroke-linejoin="round"/>
</svg>
