<svg width="71" height="70" viewBox="0 0 71 70" fill="none" xmlns="http://www.w3.org/2000/svg">
<circle cx="35.0507" cy="35" r="35" fill="white"/>
<g clip-path="url(#clip0_446_908)">
<path d="M47 26.75C47 27.5938 46.3297 28.3719 45.2 29C43.8359 29.7547 41.8016 30.2891 39.4672 30.4484C39.2937 30.3641 39.1203 30.2844 38.9375 30.2141C37.0906 29.4406 34.6344 29 32 29C31.6109 29 31.2312 29.0094 30.8516 29.0281L30.8 29C29.6703 28.3719 29 27.5938 29 26.75C29 24.6781 33.0312 23 38 23C42.9688 23 47 24.6781 47 26.75ZM30.5328 30.5516C31.0109 30.5188 31.5031 30.5 32 30.5C34.9156 30.5 37.5031 31.0766 39.1484 31.9719C40.3109 32.6047 41 33.3922 41 34.25C41 34.4375 40.9672 34.6203 40.9016 34.7984C40.6859 35.4172 40.1047 35.9844 39.2609 36.4625C39.2563 36.4672 39.2469 36.4672 39.2422 36.4719C39.2281 36.4812 39.2141 36.4859 39.2 36.4953C37.5594 37.4047 34.9438 37.9953 32 37.9953C29.2063 37.9953 26.7078 37.4656 25.0531 36.6312C24.9641 36.5891 24.8797 36.5422 24.7953 36.4953C23.6703 35.8719 23 35.0938 23 34.25C23 32.6187 25.5031 31.2266 29 30.7156C29.4922 30.6453 30.0031 30.5891 30.5328 30.5516ZM42.5 34.25C42.5 33.2234 42.0031 32.3797 41.3703 31.7469C42.6969 31.5406 43.9109 31.2125 44.9422 30.7859C45.7063 30.4672 46.4188 30.0734 47 29.5906V31.25C47 32.1547 46.2266 32.9891 44.9469 33.6359C44.2625 33.9828 43.4281 34.2781 42.4906 34.5031C42.4953 34.4187 42.5 34.3391 42.5 34.2547V34.25ZM41 38.75C41 39.5938 40.3297 40.3719 39.2 41C39.1156 41.0469 39.0312 41.0891 38.9422 41.1359C37.2922 41.9703 34.7937 42.5 32 42.5C29.0563 42.5 26.4406 41.9094 24.8 41C23.6703 40.3719 23 39.5938 23 38.75V37.0906C23.5859 37.5734 24.2938 37.9672 25.0578 38.2859C26.9094 39.0594 29.3656 39.5 32 39.5C34.6344 39.5 37.0906 39.0594 38.9422 38.2859C39.3078 38.1359 39.6594 37.9625 39.9922 37.775C40.2781 37.6156 40.5453 37.4375 40.7984 37.25C40.8688 37.1984 40.9344 37.1422 41 37.0906V37.5172V38.75ZM42.5 38.75V36.0359C43.3906 35.8391 44.2109 35.5906 44.9422 35.2859C45.7063 34.9672 46.4188 34.5734 47 34.0906V35.75C47 36.2422 46.7656 36.7344 46.3016 37.1984C45.5375 37.9625 44.1922 38.5906 42.4906 38.9984C42.4953 38.9187 42.5 38.8344 42.5 38.75ZM32 44C34.6344 44 37.0906 43.5594 38.9422 42.7859C39.7063 42.4672 40.4188 42.0734 41 41.5906V43.25C41 45.3219 36.9688 47 32 47C27.0312 47 23 45.3219 23 43.25V41.5906C23.5859 42.0734 24.2938 42.4672 25.0578 42.7859C26.9094 43.5594 29.3656 44 32 44Z" fill="#252B42"/>
</g>
<defs>
<clipPath id="clip0_446_908">
<rect width="24" height="24" fill="white" transform="translate(23 23)"/>
</clipPath>
</defs>
</svg>
