<svg width="71" height="70" viewBox="0 0 71 70" fill="none" xmlns="http://www.w3.org/2000/svg">
<circle cx="35.0507" cy="35" r="35" fill="white"/>
<path d="M34.5 33.0417C35.3021 33.0417 35.989 32.7563 36.5606 32.1856C37.1323 31.6149 37.4176 30.9281 37.4167 30.125C37.4157 29.3219 37.1303 28.6356 36.5606 28.0658C35.9909 27.4961 35.304 27.2103 34.5 27.2083C33.696 27.2064 33.0096 27.4922 32.4408 28.0658C31.8721 28.6394 31.5862 29.3258 31.5833 30.125C31.5804 30.9242 31.8663 31.611 32.4408 32.1856C33.0154 32.7602 33.7018 33.0456 34.5 33.0417ZM27.2083 32.75V27.2083H24.2917V28.6667C24.2917 29.5903 24.559 30.423 25.0938 31.1648C25.6285 31.9066 26.3333 32.435 27.2083 32.75ZM41.7917 32.75C42.6667 32.434 43.3715 31.9051 43.9062 31.1633C44.441 30.4215 44.7083 29.5893 44.7083 28.6667V27.2083H41.7917V32.75ZM33.0417 44.7083V40.1875C31.8507 39.9201 30.7876 39.416 29.8523 38.6752C28.917 37.9344 28.2301 37.0044 27.7917 35.8854C25.9688 35.6667 24.4438 34.8709 23.2169 33.4981C21.9899 32.1253 21.376 30.5149 21.375 28.6667V27.2083C21.375 26.4062 21.6608 25.7199 22.2325 25.1492C22.8042 24.5785 23.4906 24.2926 24.2917 24.2917H27.2083C27.2083 23.4896 27.4942 22.8032 28.0658 22.2325C28.6375 21.6618 29.3239 21.376 30.125 21.375H38.875C39.6771 21.375 40.364 21.6608 40.9356 22.2325C41.5073 22.8042 41.7926 23.4906 41.7917 24.2917H44.7083C45.5104 24.2917 46.1973 24.5775 46.769 25.1492C47.3406 25.7208 47.626 26.4072 47.625 27.2083V28.6667C47.625 30.5139 47.011 32.1244 45.7831 33.4981C44.5552 34.8719 43.0303 35.6676 41.2083 35.8854C40.7708 37.0035 40.0844 37.9334 39.1492 38.6752C38.2139 39.417 37.1503 39.9211 35.9583 40.1875V44.7083H40.3333C40.7465 44.7083 41.0931 44.8483 41.3731 45.1283C41.6531 45.4083 41.7926 45.7544 41.7917 46.1667C41.7907 46.5789 41.6507 46.9255 41.3717 47.2065C41.0926 47.4874 40.7465 47.6269 40.3333 47.625H28.6667C28.2535 47.625 27.9074 47.485 27.6283 47.205C27.3493 46.925 27.2093 46.5789 27.2083 46.1667C27.2074 45.7544 27.3474 45.4083 27.6283 45.1283C27.9093 44.8483 28.2554 44.7083 28.6667 44.7083H33.0417Z" fill="#252B42"/>
</svg>
