<svg width="71" height="70" viewBox="0 0 71 70" fill="none" xmlns="http://www.w3.org/2000/svg">
<ellipse cx="35.4" cy="35" rx="35.4" ry="35" fill="#22A447"/>
<path d="M32.5834 23.8333C35.7917 23.8333 38.4167 26.4583 38.4167 29.6667C38.4167 32.875 35.7917 35.5 32.5834 35.5C29.375 35.5 26.75 32.875 26.75 29.6667C26.75 26.4583 29.375 23.8333 32.5834 23.8333ZM42.7917 48.625L45.4167 51.2063C46.1459 51.9354 47.1667 51.3521 47.1667 50.4917V44.25L51.25 39.2917C51.4125 39.075 51.5115 38.8174 51.5358 38.5476C51.5601 38.2779 51.5088 38.0067 51.3877 37.7645C51.2666 37.5222 51.0804 37.3185 50.85 37.1761C50.6197 37.0338 50.3542 36.9583 50.0834 36.9583H39.875C38.7084 36.9583 37.9792 38.4167 38.7084 39.2917L42.7917 44.25V48.625ZM39.875 45.2708L36.5209 41.1875C35.9375 40.4583 35.6459 39.5833 35.6459 38.7083C34.625 38.4167 33.6042 38.4167 32.5834 38.4167C26.1667 38.4167 20.9167 41.0417 20.9167 44.25V47.1667H39.875V45.2708Z" fill="white"/>
</svg>
