<svg width="71" height="70" viewBox="0 0 71 70" fill="none" xmlns="http://www.w3.org/2000/svg">
<circle cx="35.0507" cy="35" r="35" fill="white"/>
<g clip-path="url(#clip0_446_798)">
<path d="M32.3154 23.6667H37.6846L38.3929 30.75H31.6071L32.3154 23.6667ZM31.3238 33.5833H38.6763L39.3846 40.6667H36.4167V43.5H39.25C39.6257 43.5 39.9861 43.6492 40.2517 43.9149C40.5174 44.1806 40.6667 44.5409 40.6667 44.9167C40.6667 45.2924 40.5174 45.6527 40.2517 45.9184C39.9861 46.1841 39.6257 46.3333 39.25 46.3333H30.75C30.3743 46.3333 30.014 46.1841 29.7483 45.9184C29.4826 45.6527 29.3333 45.2924 29.3333 44.9167C29.3333 44.5409 29.4826 44.1806 29.7483 43.9149C30.014 43.6492 30.3743 43.5 30.75 43.5H33.5833V40.6667H30.6154L31.3238 33.5833ZM41.5238 33.5833L42.2321 40.6667H46.8858C47.2002 40.6667 47.5107 40.5969 47.7949 40.4625C48.0791 40.328 48.3299 40.1321 48.5292 39.889C48.7285 39.6459 48.8715 39.3616 48.9476 39.0566C49.0238 38.7516 49.0314 38.4334 48.9698 38.1252L48.0617 33.5833H41.5238ZM40.5321 23.6667L41.2404 30.75H47.495L46.5331 25.9447C46.4048 25.3026 46.058 24.7248 45.5518 24.3095C45.0456 23.8942 44.4112 23.6671 43.7564 23.6667H40.5321ZM29.4679 23.6667H26.245C25.59 23.6667 24.9553 23.8937 24.4488 24.3091C23.9423 24.7244 23.5953 25.3024 23.4669 25.9447L22.505 30.75H28.7596L29.4679 23.6667ZM28.4763 33.5833H21.9383L21.0303 38.1252C20.9687 38.4333 20.9762 38.7513 21.0523 39.0562C21.1284 39.3612 21.2712 39.6454 21.4704 39.8885C21.6695 40.1316 21.9202 40.3274 22.2042 40.462C22.4882 40.5966 22.7985 40.6665 23.1128 40.6667H27.7679L28.4763 33.5833Z" fill="#F6B658"/>
</g>
<defs>
<clipPath id="clip0_446_798">
<rect width="34" height="34" fill="white" transform="translate(18 18)"/>
</clipPath>
</defs>
</svg>
