<svg width="71" height="70" viewBox="0 0 71 70" fill="none" xmlns="http://www.w3.org/2000/svg">
<circle cx="35.0507" cy="35" r="35" fill="white"/>
<path fill-rule="evenodd" clip-rule="evenodd" d="M35.0292 21.5C31.6415 21.5 28.5552 22.619 26.729 23.5333C26.564 23.6158 26.41 23.6962 26.267 23.7747C25.9835 23.9293 25.742 24.0733 25.55 24.2L27.6275 27.2585L28.6055 27.6477C32.4275 29.576 37.553 29.576 41.3757 27.6477L42.4857 27.0717L44.45 24.2C44.0427 23.9353 43.6196 23.6956 43.1832 23.4822C41.366 22.5777 38.3532 21.5 35.03 21.5M30.1985 24.962C29.463 24.8236 28.7364 24.6413 28.0227 24.416C29.7335 23.6562 32.2827 22.85 35.03 22.85C36.9327 22.85 38.732 23.237 40.22 23.7275C38.4762 23.9728 36.6155 24.389 34.8425 24.9012C33.4475 25.3047 31.817 25.2613 30.1985 24.962ZM42.1685 28.76L41.984 28.853C37.7795 30.974 32.2025 30.974 27.998 28.853L27.8232 28.7645C21.506 35.6952 16.6835 48.4978 35.0292 48.4978C53.375 48.4978 48.4355 35.4575 42.1685 28.76ZM34.25 35C33.8522 35 33.4706 35.158 33.1893 35.4393C32.908 35.7206 32.75 36.1022 32.75 36.5C32.75 36.8978 32.908 37.2794 33.1893 37.5607C33.4706 37.842 33.8522 38 34.25 38V35ZM35.75 33.5V32.75H34.25V33.5C33.4543 33.5 32.6913 33.8161 32.1287 34.3787C31.5661 34.9413 31.25 35.7044 31.25 36.5C31.25 37.2956 31.5661 38.0587 32.1287 38.6213C32.6913 39.1839 33.4543 39.5 34.25 39.5V42.5C33.5975 42.5 33.0417 42.0837 32.8347 41.5002C32.804 41.4048 32.7545 41.3165 32.689 41.2405C32.6236 41.1645 32.5436 41.1024 32.4537 41.0579C32.3638 41.0134 32.266 40.9873 32.1659 40.9813C32.0658 40.9753 31.9655 40.9894 31.8709 41.0228C31.7764 41.0562 31.6895 41.1082 31.6154 41.1758C31.5413 41.2434 31.4815 41.3251 31.4395 41.4162C31.3976 41.5073 31.3743 41.6059 31.3712 41.7061C31.368 41.8063 31.3849 41.9062 31.421 41.9998C31.6278 42.5848 32.0109 43.0913 32.5175 43.4496C33.0242 43.8078 33.6295 44.0001 34.25 44V44.75H35.75V44C36.5456 44 37.3087 43.6839 37.8713 43.1213C38.4339 42.5587 38.75 41.7956 38.75 41C38.75 40.2044 38.4339 39.4413 37.8713 38.8787C37.3087 38.3161 36.5456 38 35.75 38V35C36.4025 35 36.9582 35.4163 37.1652 35.9998C37.1959 36.0952 37.2455 36.1835 37.3109 36.2595C37.3764 36.3355 37.4564 36.3976 37.5463 36.4421C37.6361 36.4866 37.734 36.5127 37.8341 36.5187C37.9342 36.5247 38.0345 36.5106 38.1291 36.4772C38.2236 36.4438 38.3105 36.3918 38.3846 36.3242C38.4587 36.2566 38.5185 36.1749 38.5604 36.0838C38.6024 35.9927 38.6256 35.8941 38.6288 35.7939C38.632 35.6937 38.6151 35.5938 38.579 35.5002C38.3722 34.9152 37.9891 34.4087 37.4824 34.0504C36.9758 33.6922 36.3705 33.4999 35.75 33.5ZM35.75 39.5V42.5C36.1478 42.5 36.5293 42.342 36.8106 42.0607C37.092 41.7794 37.25 41.3978 37.25 41C37.25 40.6022 37.092 40.2206 36.8106 39.9393C36.5293 39.658 36.1478 39.5 35.75 39.5Z" fill="#252B42"/>
</svg>
