<svg width="72" height="70" viewBox="0 0 72 70" fill="none" xmlns="http://www.w3.org/2000/svg">
<ellipse cx="36.2741" cy="35" rx="35.4" ry="35" fill="#F6B658"/>
<path d="M36.5597 20.982C36.4112 20.8335 36.2099 20.7502 36 20.7502C35.7901 20.7502 35.5887 20.8335 35.4403 20.982L31.991 24.4305C32.2174 25.0329 32.8468 25.5 33.625 25.5C34.4032 25.5 35.0334 25.0321 35.259 24.4312C35.3157 24.2805 35.417 24.1507 35.5494 24.059C35.6818 23.9674 35.839 23.9182 36 23.9182C36.161 23.9182 36.3182 23.9674 36.4506 24.059C36.583 24.1507 36.6843 24.2805 36.741 24.4312C36.9666 25.0321 37.596 25.5 38.375 25.5C39.154 25.5 39.7834 25.0321 40.009 24.4312L36.5597 20.982ZM41.1791 25.6013C40.5869 26.5022 39.5411 27.0833 38.375 27.0833C37.488 27.0872 36.635 26.7423 36 26.123C35.365 26.7423 34.512 27.0872 33.625 27.0833C32.4589 27.0833 31.4131 26.5022 30.8209 25.6005L26.0796 30.3426C26.1435 30.3759 26.2031 30.4192 26.2585 30.4725C26.6069 30.8097 27.1389 31.0417 27.7564 31.0417C28.9494 31.0417 29.7126 30.2286 29.7126 29.4583C29.7126 29.2484 29.796 29.047 29.9445 28.8985C30.0929 28.7501 30.2943 28.6667 30.5042 28.6667C30.7142 28.6667 30.9156 28.7501 31.064 28.8985C31.2125 29.047 31.2959 29.2484 31.2959 29.4583C31.2959 30.2286 32.0599 31.0417 33.2521 31.0417C34.4444 31.0417 35.2083 30.2286 35.2083 29.4583C35.2083 29.2484 35.2917 29.047 35.4402 28.8985C35.5887 28.7501 35.79 28.6667 36 28.6667C36.21 28.6667 36.4113 28.7501 36.5598 28.8985C36.7083 29.047 36.7917 29.2484 36.7917 29.4583C36.7917 30.2286 37.5548 31.0417 38.7479 31.0417C39.9401 31.0417 40.7033 30.2286 40.7033 29.4583C40.7033 29.2484 40.7867 29.047 40.9352 28.8985C41.0836 28.7501 41.285 28.6667 41.495 28.6667C41.7049 28.6667 41.9063 28.7501 42.0547 28.8985C42.2032 29.047 42.2866 29.2484 42.2866 29.4583C42.2866 30.2286 43.0506 31.0417 44.2436 31.0417C44.8611 31.0417 45.3923 30.8097 45.7415 30.4717C45.7969 30.4194 45.8565 30.3764 45.9204 30.3426L41.1791 25.6013ZM22.7736 33.6486L25.0093 31.413C25.0473 31.4847 25.0969 31.5507 25.1581 31.6109C25.8152 32.2458 26.747 32.625 27.7564 32.625C28.8204 32.625 29.8361 32.1872 30.5042 31.4597C31.1724 32.1872 32.1881 32.625 33.2521 32.625C34.3161 32.625 35.3318 32.1872 36 31.4597C36.6682 32.1872 37.6839 32.625 38.7479 32.625C39.8119 32.625 40.8276 32.1872 41.495 31.4597C42.1639 32.1872 43.1796 32.625 44.2436 32.625C45.2538 32.625 46.1848 32.245 46.8419 31.6117C46.9016 31.5539 46.9518 31.4871 46.9907 31.4137L49.2264 33.6486C49.3748 33.7971 49.4583 33.9984 49.4583 34.2083C49.4583 35.4354 48.308 36.5833 46.6875 36.5833C45.8087 36.5833 45.0899 36.3822 44.6157 36.0585C44.1708 35.7537 43.9167 35.3309 43.9167 34.7364C43.9167 34.5264 43.8333 34.325 43.6848 34.1766C43.5363 34.0281 43.335 33.9447 43.125 33.9447C42.915 33.9447 42.7137 34.0281 42.5652 34.1766C42.4167 34.325 42.3333 34.5264 42.3333 34.7364C42.3333 35.3309 42.0792 35.7537 41.6343 36.0585C41.1601 36.383 40.4412 36.5833 39.5625 36.5833C38.6837 36.5833 37.9649 36.3822 37.4907 36.0585C37.0458 35.7537 36.7917 35.3309 36.7917 34.7364C36.7917 34.5264 36.7083 34.325 36.5598 34.1766C36.4113 34.0281 36.21 33.9447 36 33.9447C35.79 33.9447 35.5887 34.0281 35.4402 34.1766C35.2917 34.325 35.2083 34.5264 35.2083 34.7364C35.2083 35.3309 34.9542 35.7537 34.5093 36.0585C34.0351 36.383 33.3162 36.5833 32.4375 36.5833C31.5587 36.5833 30.8399 36.3822 30.3657 36.0585C29.9208 35.7537 29.6667 35.3309 29.6667 34.7364C29.6667 34.5264 29.5833 34.325 29.4348 34.1766C29.2863 34.0281 29.085 33.9447 28.875 33.9447C28.665 33.9447 28.4637 34.0281 28.3152 34.1766C28.1667 34.325 28.0833 34.5264 28.0833 34.7364C28.0833 35.3309 27.8292 35.7537 27.3843 36.0585C26.9101 36.383 26.1912 36.5833 25.3125 36.5833C23.692 36.5833 22.5417 35.4354 22.5417 34.2083C22.5417 33.9984 22.6251 33.7971 22.7736 33.6486ZM25.3125 47.3231V38.1667C26.4018 38.1667 27.4635 37.9228 28.2789 37.3647C28.5005 37.2132 28.6992 37.0407 28.875 36.847C29.0507 37.0412 29.2495 37.2138 29.4711 37.3647C30.2865 37.9228 31.3482 38.1667 32.4375 38.1667C33.5268 38.1667 34.5885 37.9228 35.4039 37.3647C35.6255 37.2132 35.8242 37.0407 36 36.847C36.1757 37.0407 36.3745 37.2132 36.5961 37.3647C37.4115 37.9228 38.4732 38.1667 39.5625 38.1667C40.6518 38.1667 41.7135 37.9228 42.5289 37.3647C42.7505 37.2132 42.9492 37.0407 43.125 36.847C43.3007 37.0407 43.4995 37.2132 43.7211 37.3647C44.5365 37.9228 45.5982 38.1667 46.6875 38.1667V47.3231C46.6875 47.9026 46.2576 48.2335 46.009 48.3792C45.7288 48.5454 45.3797 48.6602 45.0385 48.7465C44.3434 48.923 43.4496 49.0331 42.5977 49.1051C41.4827 49.1919 40.365 49.24 39.2466 49.2492L39.188 49.25H39.1675L39.1667 48.4583V43.9165C39.1667 42.4029 37.9032 40.9375 36 40.9375C34.0968 40.9375 32.8333 42.4021 32.8333 43.9165V49.25H32.7534L32.5349 49.2476C31.4894 49.234 30.4446 49.1865 29.4022 49.1051C28.5504 49.0339 27.6566 48.923 26.9615 48.7465C26.6203 48.6602 26.2712 48.5454 25.991 48.3792C25.7424 48.2327 25.3125 47.9026 25.3125 47.3231Z" fill="white"/>
</svg>
