<svg width="71" height="70" viewBox="0 0 71 70" fill="none" xmlns="http://www.w3.org/2000/svg">
<circle cx="35.084" cy="35" r="35" fill="white"/>
<path d="M21.5 22V19H26V22H21.5ZM20 49H33.5V43H21.2L20 49ZM26.1875 29.9875L24.05 27.8875L27.2375 24.7L29.375 26.8L26.1875 29.9875ZM21.8 40H33.5V34H23L21.8 40ZM35 26.5C32.925 26.5 31.1565 25.7685 29.6945 24.3055C28.2325 22.8425 27.501 21.074 27.5 19H42.5C42.5 21.075 41.7685 22.844 40.3055 24.307C38.8425 25.77 37.074 26.501 35 26.5ZM33.5 32.5V28H36.5V32.5H33.5ZM36.5 49H50L48.8 43H36.5V49ZM36.5 40H48.2L47 34H36.5V40ZM43.8125 29.9875L40.6625 26.8L42.7625 24.7L45.95 27.85L43.8125 29.9875ZM44 22V19H48.5V22H44Z" fill="#252B42"/>
</svg>
