<svg width="18" height="18" viewBox="0 0 18 18" fill="none" xmlns="http://www.w3.org/2000/svg">
<path d="M1.69348 3.98461C1.52038 4.08314 1.37654 4.22587 1.27666 4.3982C1.17678 4.57053 1.12445 4.76629 1.12501 4.96547V15.3984C1.12438 15.5928 1.17412 15.784 1.2694 15.9535C1.36467 16.1229 1.50222 16.2648 1.66863 16.3652C1.83505 16.4657 2.02465 16.5213 2.21896 16.5267C2.41326 16.532 2.60565 16.4869 2.77735 16.3958C2.79247 16.3877 2.80723 16.3793 2.82165 16.3698L5.77969 14.4345C5.81897 14.4088 5.85123 14.3738 5.87352 14.3325C5.8958 14.2913 5.90742 14.2451 5.90731 14.1982V1.63301C5.90745 1.58178 5.8936 1.53148 5.86725 1.48754C5.84089 1.44361 5.80303 1.40771 5.75776 1.38371C5.7125 1.35972 5.66153 1.34855 5.61038 1.35141C5.55922 1.35427 5.50982 1.37104 5.46751 1.39993L1.69348 3.98461ZM7.46579 1.382C7.42338 1.35443 7.37433 1.33881 7.32379 1.33678C7.27326 1.33475 7.22311 1.34639 7.17863 1.37046C7.13415 1.39454 7.09698 1.43016 7.07105 1.47358C7.04511 1.517 7.03137 1.56661 7.03126 1.61719V14.1877C7.03114 14.2346 7.04276 14.2807 7.06505 14.322C7.08734 14.3633 7.11959 14.3983 7.15887 14.4239L10.5339 16.6184C10.5763 16.646 10.6254 16.6617 10.6761 16.6638C10.7267 16.6659 10.7769 16.6542 10.8215 16.6301C10.866 16.606 10.9032 16.5702 10.9291 16.5267C10.9551 16.4832 10.9687 16.4335 10.9688 16.3828V3.82043C10.9689 3.77344 10.9572 3.72717 10.9349 3.68584C10.9125 3.64451 10.8802 3.60944 10.8408 3.58383L7.46579 1.382ZM16.3311 1.63371C16.1653 1.53225 15.9759 1.476 15.7816 1.47057C15.5872 1.46514 15.3949 1.51072 15.2237 1.60278C15.2086 1.61055 15.1939 1.61924 15.1798 1.62879L12.2214 3.56239C12.1821 3.588 12.1498 3.62304 12.1276 3.6643C12.1053 3.70556 12.0936 3.75174 12.0938 3.79864V16.3656C12.0936 16.4169 12.1074 16.4672 12.1338 16.5112C12.1602 16.5552 12.1981 16.5912 12.2434 16.6152C12.2887 16.6392 12.3397 16.6503 12.3909 16.6474C12.4422 16.6445 12.4916 16.6277 12.5339 16.5987L16.2981 14.0161C16.4733 13.9184 16.6192 13.7756 16.7206 13.6025C16.822 13.4294 16.8753 13.2323 16.875 13.0317V2.62547C16.8773 2.42734 16.8285 2.23196 16.7332 2.05823C16.6379 1.88449 16.4994 1.73828 16.3311 1.63371Z" fill="#22A447"/>
</svg>
