<svg width="91" height="101" viewBox="0 0 91 101" fill="none" xmlns="http://www.w3.org/2000/svg">
<path d="M30.3743 75.7083V80.75C30.3743 84.7614 31.9679 88.6085 34.8044 91.445C37.6408 94.2815 41.4879 95.875 45.4993 95.875C49.5107 95.875 53.3579 94.2815 56.1943 91.445C59.0308 88.6085 60.6243 84.7614 60.6243 80.75V75.7083M35.416 15.2083C35.416 12.5341 36.4784 9.96933 38.3694 8.07834C40.2603 6.18735 42.8251 5.125 45.4993 5.125C48.1736 5.125 50.7383 6.18735 52.6293 8.07834C54.5203 9.96933 55.5827 12.5341 55.5827 15.2083C61.3726 17.9461 66.3083 22.2078 69.8609 27.5367C73.4135 32.8656 75.4491 39.0608 75.7493 45.4583V60.5833C76.1288 63.7178 77.2388 66.7193 78.9902 69.3464C80.7416 71.9734 83.0853 74.1526 85.8327 75.7083H5.16602C7.91341 74.1526 10.2571 71.9734 12.0085 69.3464C13.7599 66.7193 14.8699 63.7178 15.2493 60.5833V45.4583C15.5496 39.0608 17.5852 32.8656 21.1378 27.5367C24.6904 22.2078 29.6261 17.9461 35.416 15.2083Z" stroke="#444750" stroke-width="10.0833" stroke-linecap="round" stroke-linejoin="round"/>
</svg>
