<svg width="47" height="46" viewBox="0 0 47 46" fill="none" xmlns="http://www.w3.org/2000/svg">
<path d="M46.1758 3.8219C45.6833 3.3849 45.0393 3.16315 44.3852 3.20533C43.731 3.24752 43.1201 3.55018 42.6866 4.0469L38.0592 9.4219L36.5002 7.6469C36.0637 7.14962 35.4496 6.84786 34.793 6.80801C34.1363 6.76816 33.4909 6.99348 32.9986 7.4344C32.5064 7.87533 32.2077 8.49573 32.1683 9.15914C32.1288 9.82255 32.3518 10.4746 32.7883 10.9719L36.228 14.8719C36.4621 15.134 36.7486 15.3431 37.0685 15.4853C37.3884 15.6275 37.7344 15.6996 38.0839 15.6969C38.4311 15.6929 38.7735 15.6152 39.089 15.4688C39.4045 15.3223 39.686 15.1104 39.9151 14.8469L46.3738 7.3469C46.8094 6.85254 47.0331 6.20385 46.996 5.54306C46.9589 4.88228 46.6639 4.26332 46.1758 3.8219ZM17.3221 20.6969C19.2798 20.6969 21.1936 20.1104 22.8213 19.0116C24.4491 17.9128 25.7178 16.351 26.467 14.5237C27.2162 12.6965 27.4122 10.6858 27.0303 8.746C26.6483 6.80619 25.7056 5.02436 24.3213 3.62583C22.937 2.22731 21.1733 1.2749 19.2532 0.889051C17.3331 0.503199 15.3429 0.701232 13.5342 1.45811C11.7255 2.21498 10.1796 3.49671 9.09194 5.1412C8.00429 6.78569 7.42376 8.71909 7.42376 10.6969C7.42376 13.3491 8.46662 15.8926 10.3229 17.768C12.1792 19.6433 14.6969 20.6969 17.3221 20.6969ZM32.1696 45.6969C32.8259 45.6969 33.4554 45.4335 33.9194 44.9647C34.3835 44.4958 34.6442 43.8599 34.6442 43.1969C34.6442 38.5556 32.8192 34.1044 29.5707 30.8225C26.3222 27.5406 21.9162 25.6969 17.3221 25.6969C12.728 25.6969 8.32206 27.5406 5.07353 30.8225C1.825 34.1044 6.84576e-08 38.5556 0 43.1969C0 43.8599 0.260715 44.4958 0.72479 44.9647C1.18887 45.4335 1.81829 45.6969 2.47459 45.6969" fill="white"/>
</svg>
