<svg width="21" height="21" viewBox="0 0 21 21" fill="none" xmlns="http://www.w3.org/2000/svg">
<path d="M18.9546 6.93986C18.4945 5.84173 17.8251 4.8436 16.9838 4.00109C16.145 3.15714 15.1486 2.48614 14.0512 2.02619C12.9269 1.55272 11.719 1.31003 10.4992 1.31252H10.4582C9.21747 1.31867 8.01776 1.56477 6.88778 2.04875C5.79978 2.51341 4.81274 3.1856 3.98182 4.02775C3.14865 4.86836 2.48695 5.863 2.03358 6.95627C1.56296 8.09315 1.3245 9.31267 1.33221 10.5431C1.33837 11.9663 1.67879 13.3793 2.31454 14.6426V17.7598C2.31454 18.2807 2.737 18.7031 3.25585 18.7031H6.36893C7.6381 19.3436 9.03865 19.6806 10.4602 19.6875H10.5033C11.7297 19.6875 12.9171 19.4496 14.0368 18.9841C15.1287 18.5296 16.1213 17.8665 16.9592 17.0318C17.8041 16.193 18.4685 15.2127 18.9341 14.1196C19.416 12.9876 19.6621 11.7838 19.6682 10.541C19.6723 9.29211 19.4304 8.0801 18.9546 6.93986ZM6.40585 11.4844C5.86444 11.4844 5.42352 11.0435 5.42352 10.5C5.42352 9.95656 5.86444 9.51564 6.40585 9.51564C6.94725 9.51564 7.38817 9.95656 7.38817 10.5C7.38817 11.0435 6.9493 11.4844 6.40585 11.4844ZM10.4992 11.4844C9.9578 11.4844 9.51688 11.0435 9.51688 10.5C9.51688 9.95656 9.9578 9.51564 10.4992 9.51564C11.0406 9.51564 11.4815 9.95656 11.4815 10.5C11.4815 11.0435 11.0406 11.4844 10.4992 11.4844ZM14.5926 11.4844C14.0512 11.4844 13.6102 11.0435 13.6102 10.5C13.6102 9.95656 14.0512 9.51564 14.5926 9.51564C15.134 9.51564 15.5749 9.95656 15.5749 10.5C15.5749 11.0435 15.134 11.4844 14.5926 11.4844Z" fill="#24D8B7"/>
</svg>
