<svg width="34" height="34" viewBox="0 0 34 34" fill="none" xmlns="http://www.w3.org/2000/svg">
<g clip-path="url(#clip0_119_1206)">
<path d="M14.3156 5.66666H19.6848L20.3931 12.75H13.6073L14.3156 5.66666ZM13.324 15.5833H20.6765L21.3848 22.6667H18.4169V25.5H21.2502C21.6259 25.5 21.9863 25.6492 22.252 25.9149C22.5176 26.1806 22.6669 26.5409 22.6669 26.9167C22.6669 27.2924 22.5176 27.6527 22.252 27.9184C21.9863 28.1841 21.6259 28.3333 21.2502 28.3333H12.7502C12.3745 28.3333 12.0142 28.1841 11.7485 27.9184C11.4828 27.6527 11.3336 27.2924 11.3336 26.9167C11.3336 26.5409 11.4828 26.1806 11.7485 25.9149C12.0142 25.6492 12.3745 25.5 12.7502 25.5H15.5836V22.6667H12.6156L13.324 15.5833ZM23.524 15.5833L24.2323 22.6667H28.8861C29.2004 22.6667 29.5109 22.5969 29.7951 22.4625C30.0793 22.328 30.3301 22.1321 30.5294 21.889C30.7288 21.6459 30.8717 21.3616 30.9479 21.0566C31.024 20.7516 31.0316 20.4334 30.97 20.1252L30.0619 15.5833H23.524ZM22.5323 5.66666L23.2406 12.75H29.4952L28.5333 7.94466C28.405 7.30259 28.0582 6.7248 27.552 6.3095C27.0458 5.89421 26.4114 5.66705 25.7566 5.66666H22.5323ZM11.4681 5.66666H8.24522C7.59022 5.66672 6.95547 5.89373 6.44897 6.30905C5.94248 6.72438 5.59552 7.30236 5.46714 7.94466L4.50522 12.75H10.7598L11.4681 5.66666ZM10.4765 15.5833H3.93856L3.03047 20.1252C2.96888 20.4333 2.9764 20.7513 3.0525 21.0562C3.12861 21.3612 3.27139 21.6454 3.47058 21.8885C3.66976 22.1316 3.92038 22.3274 4.20439 22.462C4.48839 22.5966 4.79871 22.6665 5.11297 22.6667H9.76814L10.4765 15.5833Z" fill="#F6B658"/>
</g>
<defs>
<clipPath id="clip0_119_1206">
<rect width="34" height="34" fill="white"/>
</clipPath>
</defs>
</svg>
