<svg width="32" height="29" viewBox="0 0 32 29" fill="none" xmlns="http://www.w3.org/2000/svg">
<path d="M12.5834 0.833336C15.7917 0.833336 18.4167 3.45834 18.4167 6.66667C18.4167 9.875 15.7917 12.5 12.5834 12.5C9.37502 12.5 6.75002 9.875 6.75002 6.66667C6.75002 3.45834 9.37502 0.833336 12.5834 0.833336ZM22.7917 25.625L25.4167 28.2063C26.1459 28.9354 27.1667 28.3521 27.1667 27.4917V21.25L31.25 16.2917C31.4125 16.075 31.5115 15.8174 31.5358 15.5476C31.5601 15.2779 31.5088 15.0067 31.3877 14.7645C31.2666 14.5222 31.0804 14.3185 30.85 14.1761C30.6197 14.0338 30.3542 13.9583 30.0834 13.9583H19.875C18.7084 13.9583 17.9792 15.4167 18.7084 16.2917L22.7917 21.25V25.625ZM19.875 22.2708L16.5209 18.1875C15.9375 17.4583 15.6459 16.5833 15.6459 15.7083C14.625 15.4167 13.6042 15.4167 12.5834 15.4167C6.16669 15.4167 0.916687 18.0417 0.916687 21.25V24.1667H19.875V22.2708Z" fill="#2789FF"/>
</svg>
