<svg width="23" height="21" viewBox="0 0 23 21" fill="none" xmlns="http://www.w3.org/2000/svg">
<path d="M2.66958 9.2263H16.4066L10.434 3.77498C10.0932 3.46298 9.90173 3.0398 9.90173 2.59856C9.90173 2.15731 10.0932 1.73414 10.434 1.42214C10.7748 1.11013 11.2371 0.934845 11.719 0.934845C12.201 0.934845 12.6632 1.11013 13.004 1.42214L22.0535 9.70681C22.2183 9.86439 22.3474 10.0502 22.4336 10.2536C22.6146 10.657 22.6146 11.1095 22.4336 11.5129C22.3474 11.7163 22.2183 11.9021 22.0535 12.0597L13.004 20.3443C12.8358 20.4996 12.6356 20.6229 12.4151 20.707C12.1945 20.7911 11.958 20.8344 11.719 20.8344C11.4801 20.8344 11.2435 20.7911 11.023 20.707C10.8024 20.6229 10.6023 20.4996 10.434 20.3443C10.2644 20.1903 10.1297 20.007 10.0378 19.8051C9.94595 19.6032 9.89864 19.3866 9.89864 19.1679C9.89864 18.9492 9.94595 18.7326 10.0378 18.5307C10.1297 18.3288 10.2644 18.1455 10.434 17.9915L16.4066 12.5402H2.66958C2.18957 12.5402 1.72922 12.3656 1.3898 12.0549C1.05038 11.7441 0.859694 11.3227 0.859694 10.8832C0.859694 10.4438 1.05038 10.0223 1.3898 9.7116C1.72922 9.40087 2.18957 9.2263 2.66958 9.2263Z" fill="#252B42"/>
</svg>
