<svg width="23" height="21" viewBox="0 0 23 21" fill="none" xmlns="http://www.w3.org/2000/svg">
<path d="M2.0486 9.22628H15.9427L9.90176 3.77496C9.55706 3.46296 9.3634 3.03978 9.3634 2.59854C9.3634 2.1573 9.55706 1.73412 9.90176 1.42212C10.2465 1.11011 10.714 0.934826 11.2015 0.934826C11.689 0.934826 12.1565 1.11011 12.5012 1.42212L21.654 9.70679C21.8207 9.86437 21.9513 10.0502 22.0385 10.2536C22.2216 10.657 22.2216 11.1094 22.0385 11.5128C21.9513 11.7162 21.8207 11.9021 21.654 12.0596L12.5012 20.3443C12.331 20.4996 12.1285 20.6229 11.9055 20.707C11.6824 20.7911 11.4431 20.8344 11.2015 20.8344C10.9598 20.8344 10.7205 20.7911 10.4975 20.707C10.2744 20.6229 10.0719 20.4996 9.90176 20.3443C9.73018 20.1903 9.594 20.007 9.50106 19.8051C9.40813 19.6032 9.36028 19.3866 9.36028 19.1679C9.36028 18.9491 9.40813 18.7326 9.50106 18.5307C9.594 18.3288 9.73018 18.1455 9.90176 17.9915L15.9427 12.5401H2.0486C1.5631 12.5401 1.09749 12.3656 0.754188 12.0548C0.410889 11.7441 0.218027 11.3227 0.218027 10.8832C0.218027 10.4438 0.410889 10.0223 0.754188 9.71158C1.09749 9.40085 1.5631 9.22628 2.0486 9.22628Z" fill="#F6B658"/>
</svg>
