<svg width="27" height="27" viewBox="0 0 27 27" fill="none" xmlns="http://www.w3.org/2000/svg">
<g opacity="0.3" clip-path="url(#clip0_1_185)">
<path d="M25.1795 18.1603C24.9971 19.5464 24.3164 20.8187 23.2645 21.7396C22.2126 22.6604 20.8614 23.1669 19.4634 23.1644C11.3414 23.1644 4.73341 16.5564 4.73341 8.43442C4.7309 7.0364 5.23739 5.68526 6.15826 4.63336C7.07914 3.58147 8.35143 2.90076 9.73752 2.71837C10.088 2.67557 10.443 2.74728 10.7494 2.92278C11.0558 3.09829 11.2972 3.36819 11.4376 3.69218L13.598 8.51524V8.52751C13.7055 8.77552 13.7499 9.04629 13.7272 9.31564C13.7046 9.58499 13.6155 9.84454 13.4681 10.0711C13.4497 10.0987 13.4302 10.1243 13.4098 10.1499L11.2801 12.6744C12.0462 14.2313 13.6747 15.8455 15.2521 16.6137L17.7418 14.4952C17.7663 14.4746 17.7919 14.4555 17.8186 14.4379C18.0449 14.2869 18.3054 14.1948 18.5763 14.1698C18.8472 14.1448 19.1201 14.1877 19.3703 14.2947L19.3836 14.3009L24.2026 16.4602C24.5271 16.6001 24.7977 16.8413 24.9738 17.1478C25.1499 17.4542 25.222 17.8095 25.1795 18.1603Z" fill="black"/>
</g>
<defs>
<clipPath id="clip0_1_185">
<rect width="26.1867" height="26.1867" fill="white" transform="translate(0.369141 0.639893)"/>
</clipPath>
</defs>
</svg>
