<svg width="14" height="14" viewBox="0 0 14 14" fill="none" xmlns="http://www.w3.org/2000/svg">
<path d="M13.7083 7.875H7.875V13.7083C7.875 13.8695 7.74448 14 7.58333 14H6.41667C6.25552 14 6.125 13.8695 6.125 13.7083V7.875H0.291667C0.130521 7.875 0 7.74448 0 7.58333V6.41667C0 6.25552 0.130521 6.125 0.291667 6.125H6.125V0.291667C6.125 0.130522 6.25552 0 6.41667 0H7.58333C7.74448 0 7.875 0.130522 7.875 0.291667V6.125H13.7083C13.8695 6.125 14 6.25552 14 6.41667V7.58333C14 7.74448 13.8695 7.875 13.7083 7.875Z" fill="white"/>
</svg>
