<svg width="19" height="18" viewBox="0 0 19 18" fill="none" xmlns="http://www.w3.org/2000/svg">
<path d="M9.56926 10.9908C10.7833 10.9908 11.7674 10.0067 11.7674 8.79265C11.7674 7.57863 10.7833 6.59448 9.56926 6.59448C8.35525 6.59448 7.37109 7.57863 7.37109 8.79265C7.37109 10.0067 8.35525 10.9908 9.56926 10.9908Z" stroke="#444750" stroke-width="1.09908" stroke-miterlimit="10" stroke-linecap="round" stroke-linejoin="round"/>
<path d="M2.24219 9.43744V8.14785C2.24219 7.38582 2.865 6.75568 3.63436 6.75568C4.96059 6.75568 5.5028 5.81779 4.83602 4.66742C4.45501 4.00797 4.68215 3.15069 5.34893 2.76967L6.61654 2.04428C7.19539 1.6999 7.94276 1.90506 8.28714 2.48391L8.36774 2.62313C9.02719 3.7735 10.1116 3.7735 10.7784 2.62313L10.859 2.48391C11.2034 1.90506 11.9508 1.6999 12.5296 2.04428L13.7972 2.76967C14.464 3.15069 14.6911 4.00797 14.3101 4.66742C13.6433 5.81779 14.1856 6.75568 15.5118 6.75568C16.2738 6.75568 16.9039 7.37849 16.9039 8.14785V9.43744C16.9039 10.1995 16.2811 10.8296 15.5118 10.8296C14.1856 10.8296 13.6433 11.7675 14.3101 12.9179C14.6911 13.5846 14.464 14.4346 13.7972 14.8156L12.5296 15.541C11.9508 15.8854 11.2034 15.6802 10.859 15.1014L10.7784 14.9622C10.1189 13.8118 9.03452 13.8118 8.36774 14.9622L8.28714 15.1014C7.94276 15.6802 7.19539 15.8854 6.61654 15.541L5.34893 14.8156C4.68215 14.4346 4.45501 13.5773 4.83602 12.9179C5.5028 11.7675 4.96059 10.8296 3.63436 10.8296C2.865 10.8296 2.24219 10.1995 2.24219 9.43744Z" stroke="#444750" stroke-width="1.09908" stroke-miterlimit="10" stroke-linecap="round" stroke-linejoin="round"/>
</svg>
