<?xml version="1.0" encoding="UTF-8"?>
<svg version="1.1" xmlns="http://www.w3.org/2000/svg" width="96" height="96">
<path d="M0 0 C0.69933655 -0.00350464 1.3986731 -0.00700928 2.11920166 -0.01062012 C4.43633888 -0.01943969 6.75317205 -0.01358763 9.0703125 -0.00683594 C10.67692117 -0.00818253 12.28352945 -0.01012301 13.89013672 -0.01263428 C17.25947952 -0.01558584 20.62871637 -0.01128691 23.99804688 -0.00195312 C28.32270744 0.00944148 32.64711979 0.00288218 36.97177124 -0.00909805 C40.2899768 -0.01631581 43.60812325 -0.01402912 46.92633057 -0.00884247 C48.5211795 -0.00750574 50.11603375 -0.00915451 51.71087646 -0.01380157 C53.93760448 -0.0188655 56.16392726 -0.01115882 58.390625 0 C60.29352295 0.00238678 60.29352295 0.00238678 62.23486328 0.00482178 C65.1953125 0.25878906 65.1953125 0.25878906 67.1953125 2.25878906 C67.44927979 4.61181641 67.44927979 4.61181641 67.45410156 7.59472656 C67.46040588 8.70928223 67.46671021 9.82383789 67.47320557 10.97216797 C67.4691571 12.18050293 67.46510864 13.38883789 67.4609375 14.63378906 C67.46285095 15.86919434 67.4647644 17.10459961 67.46673584 18.37744141 C67.4684486 21.66470313 67.46037949 24.95177694 67.44921875 28.23901367 C67.44531647 30.25673436 67.44920421 32.27428107 67.45605469 34.29199219 C67.46837254 38.15600735 67.46692228 42.01976334 67.4609375 45.88378906 C67.46498596 47.09212402 67.46903442 48.30045898 67.47320557 49.54541016 C67.46374908 51.21724365 67.46374908 51.21724365 67.45410156 52.92285156 C67.45251038 53.90721191 67.45091919 54.89157227 67.44927979 55.90576172 C67.1953125 58.25878906 67.1953125 58.25878906 65.1953125 60.25878906 C62.87593079 60.49015808 62.87593079 60.49015808 59.9387207 60.46655273 C58.8403035 60.46382858 57.74188629 60.46110443 56.61018372 60.45829773 C55.41753403 60.44788956 54.22488434 60.43748138 52.99609375 60.42675781 C50.48241809 60.43243711 47.96874551 60.43964714 45.45507812 60.44824219 C41.48276876 60.45241401 37.5114917 60.44631962 33.53930664 60.41333008 C29.71167344 60.38639338 25.88620596 60.40323722 22.05859375 60.42675781 C20.87606522 60.40622849 19.69353668 60.38569916 18.47517395 60.36454773 C12.80730473 60.43086571 9.17442238 60.55753702 5.03686523 64.67456055 C4.0692513 65.85281846 3.11923878 67.04597058 2.1953125 68.25878906 C0.79582409 69.56904835 -0.61698818 70.86557462 -2.0546875 72.13378906 C-2.69921875 72.70871094 -3.34375 73.28363281 -4.0078125 73.87597656 C-5.8046875 75.25878906 -5.8046875 75.25878906 -8.8046875 76.25878906 C-8.85096491 66.64494488 -8.88653323 57.03113886 -8.90831184 47.41720772 C-8.91876284 42.95339152 -8.93294594 38.48965134 -8.95556641 34.02587891 C-8.97724802 29.72058232 -8.9892462 25.41535901 -8.99444199 21.11001205 C-8.99814619 19.46491212 -9.00537927 17.81981633 -9.01614761 16.17474747 C-9.03060049 13.87601202 -9.03266808 11.57758193 -9.03173828 9.27880859 C-9.0361795 7.96864777 -9.04062073 6.65848694 -9.04519653 5.30862427 C-8.57127439 -0.70106455 -5.16330691 0.00647627 0 0 Z " fill="#2196F3" transform="translate(18.8046875,9.7412109375)"/>
<path d="M0 0 C2.625 0.375 2.625 0.375 5 1 C5.625 3.375 5.625 3.375 6 6 C5.34 6.66 4.68 7.32 4 8 C1.375 7.625 1.375 7.625 -1 7 C-1.625 4.625 -1.625 4.625 -2 2 C-1.34 1.34 -0.68 0.68 0 0 Z " fill="#D6ECFC" transform="translate(64,36)"/>
<path d="M0 0 C2.625 0.375 2.625 0.375 5 1 C5.625 3.375 5.625 3.375 6 6 C5.34 6.66 4.68 7.32 4 8 C1.375 7.625 1.375 7.625 -1 7 C-1.625 4.625 -1.625 4.625 -2 2 C-1.34 1.34 -0.68 0.68 0 0 Z " fill="#D6ECFC" transform="translate(46,36)"/>
<path d="M0 0 C2.625 0.375 2.625 0.375 5 1 C5.625 3.375 5.625 3.375 6 6 C5.34 6.66 4.68 7.32 4 8 C1.375 7.625 1.375 7.625 -1 7 C-1.625 4.625 -1.625 4.625 -2 2 C-1.34 1.34 -0.68 0.68 0 0 Z " fill="#D6ECFC" transform="translate(28,36)"/>
</svg>
