<svg width="26" height="28" viewBox="0 0 26 28" fill="none" xmlns="http://www.w3.org/2000/svg">
<path fill-rule="evenodd" clip-rule="evenodd" d="M13.0292 0.5C9.64149 0.5 6.55524 1.619 4.72899 2.53325C4.56399 2.61575 4.40999 2.69625 4.26699 2.77475C3.98349 2.92925 3.74199 3.07325 3.54999 3.2L5.62749 6.2585L6.60549 6.64775C10.4275 8.576 15.553 8.576 19.3757 6.64775L20.4857 6.07175L22.45 3.2C22.0427 2.93533 21.6196 2.69564 21.1832 2.48225C19.366 1.57775 16.3532 0.5 13.03 0.5M8.19849 3.962C7.46299 3.82359 6.73644 3.64126 6.02274 3.416C7.73349 2.65625 10.2827 1.85 13.03 1.85C14.9327 1.85 16.732 2.237 18.22 2.7275C16.4762 2.97275 14.6155 3.389 12.8425 3.90125C11.4475 4.30475 9.81699 4.26125 8.19849 3.962ZM20.1685 7.76L19.984 7.853C15.7795 9.974 10.2025 9.974 5.99799 7.853L5.82324 7.7645C-0.494013 14.6952 -5.31651 27.4978 13.0292 27.4978C31.375 27.4978 26.4355 14.4575 20.1685 7.76ZM12.25 14C11.8522 14 11.4706 14.158 11.1893 14.4393C10.908 14.7206 10.75 15.1022 10.75 15.5C10.75 15.8978 10.908 16.2794 11.1893 16.5607C11.4706 16.842 11.8522 17 12.25 17V14ZM13.75 12.5V11.75H12.25V12.5C11.4543 12.5 10.6913 12.8161 10.1287 13.3787C9.56606 13.9413 9.24999 14.7044 9.24999 15.5C9.24999 16.2956 9.56606 17.0587 10.1287 17.6213C10.6913 18.1839 11.4543 18.5 12.25 18.5V21.5C11.5975 21.5 11.0417 21.0837 10.8347 20.5002C10.804 20.4048 10.7545 20.3165 10.689 20.2405C10.6236 20.1645 10.5436 20.1024 10.4537 20.0579C10.3638 20.0134 10.266 19.9873 10.1659 19.9813C10.0658 19.9753 9.96548 19.9894 9.87092 20.0228C9.77637 20.0562 9.68948 20.1082 9.61538 20.1758C9.54129 20.2434 9.4815 20.3251 9.43955 20.4162C9.3976 20.5073 9.37434 20.6059 9.37115 20.7061C9.36796 20.8063 9.38491 20.9062 9.42099 20.9998C9.62777 21.5848 10.0109 22.0913 10.5175 22.4496C11.0242 22.8078 11.6295 23.0001 12.25 23V23.75H13.75V23C14.5456 23 15.3087 22.6839 15.8713 22.1213C16.4339 21.5587 16.75 20.7956 16.75 20C16.75 19.2044 16.4339 18.4413 15.8713 17.8787C15.3087 17.3161 14.5456 17 13.75 17V14C14.4025 14 14.9582 14.4163 15.1652 14.9998C15.1959 15.0952 15.2455 15.1835 15.3109 15.2595C15.3764 15.3355 15.4564 15.3976 15.5463 15.4421C15.6361 15.4866 15.734 15.5127 15.8341 15.5187C15.9342 15.5247 16.0345 15.5106 16.1291 15.4772C16.2236 15.4438 16.3105 15.3918 16.3846 15.3242C16.4587 15.2566 16.5185 15.1749 16.5604 15.0838C16.6024 14.9927 16.6256 14.8941 16.6288 14.7939C16.632 14.6937 16.6151 14.5938 16.579 14.5002C16.3722 13.9152 15.9891 13.4087 15.4824 13.0504C14.9758 12.6922 14.3705 12.4999 13.75 12.5ZM13.75 18.5V21.5C14.1478 21.5 14.5293 21.342 14.8106 21.0607C15.092 20.7794 15.25 20.3978 15.25 20C15.25 19.6022 15.092 19.2206 14.8106 18.9393C14.5293 18.658 14.1478 18.5 13.75 18.5Z" fill="#9F87FF"/>
</svg>
