<svg width="35" height="35" viewBox="0 0 35 35" fill="none" xmlns="http://www.w3.org/2000/svg">
<path d="M17.5 16.0417C18.3021 16.0417 18.989 15.7563 19.5606 15.1856C20.1323 14.6149 20.4176 13.9281 20.4167 13.125C20.4157 12.3219 20.1303 11.6356 19.5606 11.0658C18.9909 10.4961 18.304 10.2103 17.5 10.2083C16.696 10.2064 16.0096 10.4922 15.4408 11.0658C14.8721 11.6394 14.5862 12.3258 14.5833 13.125C14.5804 13.9242 14.8663 14.611 15.4408 15.1856C16.0154 15.7602 16.7018 16.0456 17.5 16.0417ZM10.2083 15.75V10.2083H7.29167V11.6667C7.29167 12.5903 7.55903 13.423 8.09375 14.1648C8.62847 14.9066 9.33333 15.435 10.2083 15.75ZM24.7917 15.75C25.6667 15.434 26.3715 14.9051 26.9062 14.1633C27.441 13.4215 27.7083 12.5893 27.7083 11.6667V10.2083H24.7917V15.75ZM16.0417 27.7083V23.1875C14.8507 22.9201 13.7876 22.416 12.8523 21.6752C11.917 20.9344 11.2301 20.0044 10.7917 18.8854C8.96875 18.6667 7.44382 17.8709 6.21687 16.4981C4.98993 15.1253 4.37597 13.5149 4.375 11.6667V10.2083C4.375 9.40625 4.66083 8.71986 5.2325 8.14917C5.80417 7.57847 6.49056 7.29264 7.29167 7.29167H10.2083C10.2083 6.48958 10.4942 5.80319 11.0658 5.2325C11.6375 4.66181 12.3239 4.37597 13.125 4.375H21.875C22.6771 4.375 23.364 4.66083 23.9356 5.2325C24.5073 5.80417 24.7926 6.49056 24.7917 7.29167H27.7083C28.5104 7.29167 29.1973 7.5775 29.769 8.14917C30.3406 8.72083 30.626 9.40722 30.625 10.2083V11.6667C30.625 13.5139 30.011 15.1244 28.7831 16.4981C27.5552 17.8719 26.0303 18.6676 24.2083 18.8854C23.7708 20.0035 23.0844 20.9334 22.1492 21.6752C21.2139 22.417 20.1503 22.9211 18.9583 23.1875V27.7083H23.3333C23.7465 27.7083 24.0931 27.8483 24.3731 28.1283C24.6531 28.4083 24.7926 28.7544 24.7917 29.1667C24.7907 29.5789 24.6507 29.9255 24.3717 30.2065C24.0926 30.4874 23.7465 30.6269 23.3333 30.625H11.6667C11.2535 30.625 10.9074 30.485 10.6283 30.205C10.3493 29.925 10.2093 29.5789 10.2083 29.1667C10.2074 28.7544 10.3474 28.4083 10.6283 28.1283C10.9093 27.8483 11.2554 27.7083 11.6667 27.7083H16.0417Z" fill="#9F87FF"/>
</svg>
