<svg width="44" height="41" viewBox="0 0 44 41" fill="none" xmlns="http://www.w3.org/2000/svg">
<path d="M13.22 19.0073H26.9571L20.9845 13.556C20.6436 13.244 20.4522 12.8208 20.4522 12.3795C20.4522 11.9383 20.6436 11.5151 20.9845 11.2031C21.3253 10.8911 21.7875 10.7158 22.2695 10.7158C22.7514 10.7158 23.2137 10.8911 23.5545 11.2031L32.6039 19.4878C32.7687 19.6454 32.8979 19.8312 32.984 20.0346C33.165 20.438 33.165 20.8904 32.984 21.2938C32.8979 21.4972 32.7687 21.6831 32.6039 21.8406L23.5545 30.1253C23.3862 30.2806 23.1861 30.4039 22.9655 30.488C22.745 30.5721 22.5084 30.6154 22.2695 30.6154C22.0305 30.6154 21.794 30.5721 21.5734 30.488C21.3529 30.4039 21.1527 30.2806 20.9845 30.1253C20.8148 29.9713 20.6802 29.788 20.5883 29.5861C20.4964 29.3842 20.4491 29.1676 20.4491 28.9489C20.4491 28.7301 20.4964 28.5136 20.5883 28.3117C20.6802 28.1097 20.8148 27.9265 20.9845 27.7725L26.9571 22.3211H13.22C12.74 22.3211 12.2797 22.1466 11.9402 21.8358C11.6008 21.5251 11.4101 21.1037 11.4101 20.6642C11.4101 20.2248 11.6008 19.8033 11.9402 19.4926C12.2797 19.1818 12.74 19.0073 13.22 19.0073Z" fill="white"/>
</svg>
