<svg width="44" height="40" viewBox="0 0 44 40" fill="none" xmlns="http://www.w3.org/2000/svg">
<path d="M12.6696 18.2263H26.4066L20.434 12.775C20.0932 12.4629 19.9017 12.0398 19.9017 11.5985C19.9017 11.1573 20.0932 10.7341 20.434 10.4221C20.7748 10.1101 21.2371 9.93481 21.719 9.93481C22.201 9.93481 22.6632 10.1101 23.004 10.4221L32.0535 18.7068C32.2183 18.8644 32.3474 19.0502 32.4336 19.2536C32.6146 19.657 32.6146 20.1094 32.4336 20.5128C32.3474 20.7162 32.2183 20.902 32.0535 21.0596L23.004 29.3443C22.8358 29.4996 22.6356 29.6229 22.4151 29.707C22.1945 29.7911 21.958 29.8344 21.719 29.8344C21.4801 29.8344 21.2435 29.7911 21.023 29.707C20.8024 29.6229 20.6023 29.4996 20.434 29.3443C20.2644 29.1903 20.1297 29.007 20.0378 28.8051C19.946 28.6032 19.8986 28.3866 19.8986 28.1679C19.8986 27.9491 19.946 27.7326 20.0378 27.5307C20.1297 27.3287 20.2644 27.1455 20.434 26.9915L26.4066 21.5401H12.6696C12.1896 21.5401 11.7292 21.3656 11.3898 21.0548C11.0504 20.7441 10.8597 20.3226 10.8597 19.8832C10.8597 19.4438 11.0504 19.0223 11.3898 18.7116C11.7292 18.4008 12.1896 18.2263 12.6696 18.2263Z" fill="white"/>
</svg>
