<svg width="27" height="27" viewBox="0 0 27 27" fill="none" xmlns="http://www.w3.org/2000/svg">
<path fill-rule="evenodd" clip-rule="evenodd" d="M11.2802 4.49561H15.6446C19.7592 4.49561 21.817 4.49561 23.0947 5.77439C24.3735 7.05208 24.3735 9.10991 24.3735 13.2245C24.3735 17.3391 24.3735 19.3969 23.0947 20.6746C21.817 21.9534 19.7592 21.9534 15.6446 21.9534H11.2802C7.16558 21.9534 5.10774 21.9534 3.83005 20.6746C2.55127 19.3969 2.55127 17.3391 2.55127 13.2245C2.55127 9.10991 2.55127 7.05208 3.83005 5.77439C5.10774 4.49561 7.16558 4.49561 11.2802 4.49561ZM14.8263 9.95116C14.8263 9.73413 14.9125 9.52598 15.066 9.37251C15.2194 9.21904 15.4276 9.13283 15.6446 9.13283H21.1002C21.3172 9.13283 21.5253 9.21904 21.6788 9.37251C21.8323 9.52598 21.9185 9.73413 21.9185 9.95116C21.9185 10.1682 21.8323 10.3763 21.6788 10.5298C21.5253 10.6833 21.3172 10.7695 21.1002 10.7695H15.6446C15.4276 10.7695 15.2194 10.6833 15.066 10.5298C14.9125 10.3763 14.8263 10.1682 14.8263 9.95116ZM15.9174 13.2245C15.9174 13.0075 16.0036 12.7993 16.1571 12.6458C16.3105 12.4924 16.5187 12.4062 16.7357 12.4062H21.1002C21.3172 12.4062 21.5253 12.4924 21.6788 12.6458C21.8323 12.7993 21.9185 13.0075 21.9185 13.2245C21.9185 13.4415 21.8323 13.6497 21.6788 13.8031C21.5253 13.9566 21.3172 14.0428 21.1002 14.0428H16.7357C16.5187 14.0428 16.3105 13.9566 16.1571 13.8031C16.0036 13.6497 15.9174 13.4415 15.9174 13.2245ZM17.0085 16.4978C17.0085 16.2808 17.0947 16.0726 17.2482 15.9192C17.4016 15.7657 17.6098 15.6795 17.8268 15.6795H21.1002C21.3172 15.6795 21.5253 15.7657 21.6788 15.9192C21.8323 16.0726 21.9185 16.2808 21.9185 16.4978C21.9185 16.7149 21.8323 16.923 21.6788 17.0765C21.5253 17.2299 21.3172 17.3162 21.1002 17.3162H17.8268C17.6098 17.3162 17.4016 17.2299 17.2482 17.0765C17.0947 16.923 17.0085 16.7149 17.0085 16.4978ZM12.3713 9.95116C12.3713 10.5299 12.1414 11.085 11.7321 11.4942C11.3229 11.9035 10.7678 12.1334 10.189 12.1334C9.61029 12.1334 9.05523 11.9035 8.64598 11.4942C8.23674 11.085 8.00682 10.5299 8.00682 9.95116C8.00682 9.3724 8.23674 8.81734 8.64598 8.4081C9.05523 7.99885 9.61029 7.76894 10.189 7.76894C10.7678 7.76894 11.3229 7.99885 11.7321 8.4081C12.1414 8.81734 12.3713 9.3724 12.3713 9.95116ZM10.189 18.68C14.5535 18.68 14.5535 17.7035 14.5535 16.4978C14.5535 15.2921 12.6004 14.3156 10.189 14.3156C7.77769 14.3156 5.8246 15.2921 5.8246 16.4978C5.8246 17.7035 5.8246 18.68 10.189 18.68Z" fill="#C2C2C2"/>
</svg>
