<svg width="18" height="13" viewBox="0 0 18 13" fill="none" xmlns="http://www.w3.org/2000/svg">
<path d="M8.87335 7.00604C9.61247 7.00604 10.2817 6.70317 10.7658 6.21326C11.25 5.72402 11.5497 5.04773 11.5497 4.30091C11.5497 3.55403 11.25 2.87773 10.7658 2.38855C10.2817 1.89931 9.61241 1.59577 8.87335 1.59577C8.13423 1.59577 7.46495 1.89864 6.98086 2.38855C6.49669 2.8778 6.19699 3.55408 6.19699 4.30091C6.19699 5.04846 6.49671 5.72409 6.98086 6.21326C7.46502 6.70251 8.13428 7.00604 8.87335 7.00604ZM13.2388 5.859C13.0191 5.859 12.8401 5.67879 12.8401 5.45609C12.8401 5.23409 13.0184 5.05318 13.2388 5.05318H14.6248V3.65261C14.6248 3.43061 14.8032 3.24971 15.0236 3.24971C15.2433 3.24971 15.4223 3.42991 15.4223 3.65261V5.05318H16.8083C17.028 5.05318 17.207 5.23338 17.207 5.45609C17.207 5.67809 17.0287 5.859 16.8083 5.859H15.4223V7.25956C15.4223 7.48157 15.244 7.66247 15.0236 7.66247C14.8039 7.66247 14.6248 7.48227 14.6248 7.25956V5.859H13.2388ZM6.1195 7.46033C6.11136 7.46649 6.10254 7.47266 6.09373 7.47883C5.60821 7.82965 5.19052 8.26955 4.86231 8.77318C4.36729 9.53444 4.07844 10.4444 4.07844 11.4216V11.9855H13.6687V11.4216C13.6687 10.4445 13.3805 9.53377 12.8848 8.77318C12.4169 8.05371 11.7639 7.46649 10.9963 7.08004C10.4091 7.53913 9.67266 7.81185 8.87327 7.81185C8.0738 7.81185 7.33671 7.53845 6.75025 7.08004C6.52988 7.19104 6.31898 7.3185 6.11963 7.46102L6.1195 7.46033ZM3.15022 7.30684C3.00375 7.20543 2.86746 7.09099 2.74268 6.96492C2.22529 6.4421 1.90456 5.71852 1.90456 4.92031C1.90456 4.12204 2.22463 3.39914 2.74268 2.87569C3.26007 2.35287 3.97613 2.02878 4.76606 2.02878C5.05561 2.02878 5.33837 2.07332 5.6069 2.15691C5.74523 2.20008 5.88017 2.25353 6.00968 2.31657C6.13038 2.13842 6.26736 1.9726 6.4179 1.82116C7.04649 1.18598 7.91445 0.792664 8.87387 0.792664C9.83329 0.792664 10.7013 1.18529 11.3298 1.82116C11.9584 2.45635 12.3477 3.33342 12.3477 4.30291C12.3477 5.12995 12.0642 5.88986 11.5909 6.49014C12.3802 6.9369 13.0529 7.57209 13.5485 8.33408C14.1283 9.22485 14.466 10.287 14.466 11.4229V12.3898C14.466 12.6118 14.2876 12.7927 14.0672 12.7927H0.605753C0.385379 12.7927 0.207031 12.6125 0.207031 12.3898V11.6155C0.207031 10.3485 0.719664 9.19599 1.54625 8.36138C1.99855 7.90434 2.5444 7.54323 3.15062 7.3089L3.15022 7.30684ZM5.63674 3.025C5.55198 2.98526 5.4645 2.951 5.37297 2.92291C5.18379 2.86466 4.97968 2.83246 4.76608 2.83246C4.19579 2.83246 3.6791 3.06611 3.30614 3.44367C2.93252 3.82121 2.70128 4.34335 2.70128 4.91893C2.70128 5.4952 2.9325 6.01731 3.30614 6.39419C3.67976 6.77173 4.19647 7.0054 4.76608 7.0054C4.93153 7.0054 5.09291 6.98621 5.24548 6.94921C5.3967 6.9129 5.54045 6.86014 5.67404 6.79436C5.82933 6.68404 5.99003 6.58195 6.15616 6.48738C5.68285 5.88714 5.39941 5.12725 5.39941 4.30016C5.39941 3.84998 5.48349 3.41899 5.63606 3.02362L5.63674 3.025ZM4.57756 7.81589C3.61806 7.86454 2.74947 8.28114 2.10926 8.92867C1.4271 9.618 1.00397 10.5684 1.00397 11.6134V11.9848H3.28166V11.4208C3.28166 10.2848 3.61935 9.22274 4.19913 8.33199C4.31576 8.15247 4.44261 7.98034 4.57756 7.81589Z" fill="#444750"/>
</svg>
