<svg width="71" height="70" viewBox="0 0 71 70" fill="none" xmlns="http://www.w3.org/2000/svg">
<circle cx="35.0338" cy="35" r="35" fill="white"/>
<path fill-rule="evenodd" clip-rule="evenodd" d="M35.052 24.25H34.948C34.049 24.25 33.3 24.25 32.706 24.33C32.078 24.414 31.511 24.6 31.056 25.055C30.6 25.511 30.414 26.078 30.33 26.705C30.273 27.132 30.256 28.151 30.252 29.025C28.23 29.092 27.015 29.328 26.172 30.172C25 31.343 25 33.229 25 37C25 40.771 25 42.657 26.172 43.828C27.343 45 29.229 45 33 45H37C40.771 45 42.657 45 43.828 43.828C45 42.657 45 40.771 45 37C45 33.229 45 31.343 43.828 30.172C42.985 29.328 41.77 29.092 39.748 29.026C39.744 28.151 39.728 27.132 39.67 26.706C39.586 26.078 39.4 25.511 38.944 25.056C38.489 24.6 37.922 24.414 37.294 24.33C36.7 24.25 35.95 24.25 35.052 24.25ZM38.248 29.002C38.243 28.155 38.229 27.244 38.184 26.905C38.121 26.444 38.014 26.246 37.884 26.116C37.754 25.986 37.556 25.879 37.094 25.816C36.612 25.752 35.964 25.75 35 25.75C34.036 25.75 33.388 25.752 32.905 25.817C32.444 25.879 32.246 25.986 32.116 26.117C31.986 26.247 31.879 26.444 31.816 26.905C31.771 27.245 31.756 28.155 31.752 29.002C32.143 29 32.56 29 33 29H37C37.441 29 37.857 29 38.248 29.002ZM35 32.25C35.1989 32.25 35.3897 32.329 35.5303 32.4697C35.671 32.6103 35.75 32.8011 35.75 33V33.01C36.839 33.284 37.75 34.143 37.75 35.333C37.75 35.5319 37.671 35.7227 37.5303 35.8633C37.3897 36.004 37.1989 36.083 37 36.083C36.8011 36.083 36.6103 36.004 36.4697 35.8633C36.329 35.7227 36.25 35.5319 36.25 35.333C36.25 34.949 35.824 34.417 35 34.417C34.176 34.417 33.75 34.949 33.75 35.333C33.75 35.717 34.176 36.25 35 36.25C36.385 36.25 37.75 37.21 37.75 38.667C37.75 39.857 36.839 40.715 35.75 40.99V41C35.75 41.1989 35.671 41.3897 35.5303 41.5303C35.3897 41.671 35.1989 41.75 35 41.75C34.8011 41.75 34.6103 41.671 34.4697 41.5303C34.329 41.3897 34.25 41.1989 34.25 41V40.99C33.161 40.716 32.25 39.857 32.25 38.667C32.25 38.4681 32.329 38.2773 32.4697 38.1367C32.6103 37.996 32.8011 37.917 33 37.917C33.1989 37.917 33.3897 37.996 33.5303 38.1367C33.671 38.2773 33.75 38.4681 33.75 38.667C33.75 39.051 34.176 39.583 35 39.583C35.824 39.583 36.25 39.051 36.25 38.667C36.25 38.283 35.824 37.75 35 37.75C33.615 37.75 32.25 36.79 32.25 35.333C32.25 34.143 33.161 33.284 34.25 33.01V33C34.25 32.8011 34.329 32.6103 34.4697 32.4697C34.6103 32.329 34.8011 32.25 35 32.25Z" fill="#0EDD64"/>
</svg>
